<?xml version="1.0" encoding="UTF-8" standalone="no"?>
<svg
   xmlns:dc="http://purl.org/dc/elements/1.1/"
   xmlns:cc="http://creativecommons.org/ns#"
   xmlns:rdf="http://www.w3.org/1999/02/22-rdf-syntax-ns#"
   xmlns:svg="http://www.w3.org/2000/svg"
   xmlns="http://www.w3.org/2000/svg"
   viewBox="0 0 555.14667 291.35999"
   height="291.35999"
   width="555.14667"
   xml:space="preserve"
   id="svg2"
   version="1.1"><metadata
     id="metadata8"><rdf:RDF><cc:Work
         rdf:about=""><dc:format>image/svg+xml</dc:format><dc:type
           rdf:resource="http://purl.org/dc/dcmitype/StillImage" /></cc:Work></rdf:RDF></metadata><defs
     id="defs6" /><g
     transform="matrix(1.3333333,0,0,-1.3333333,0,291.36)"
     id="g10"><g
       transform="scale(0.1)"
       id="g12"><path
         id="path14"
         style="fill:#c38a08;fill-opacity:1;fill-rule:evenodd;stroke:none"
         d="m 2088.35,2185.18 c 270.56,0 491.22,-220.66 491.22,-491.22 0,-270.56 -220.66,-491.22 -491.22,-491.22 -270.55,0 -491.22,220.66 -491.22,491.22 0,270.56 220.67,491.22 491.22,491.22" /><path
         id="path16"
         style="fill:#b5131d;fill-opacity:1;fill-rule:evenodd;stroke:none"
         d="m 2088.35,2154.2 c 253.5,0 460.24,-206.74 460.24,-460.24 0,-253.49 -206.74,-460.25 -460.24,-460.25 -253.49,0 -460.24,206.76 -460.24,460.25 0,253.5 206.75,460.24 460.24,460.24" /><path
         id="path18"
         style="fill:#bd2827;fill-opacity:1;fill-rule:evenodd;stroke:none"
         d="m 2159.63,1519.54 c -5.63,-4.04 -34.42,-7.82 -39.77,-2.9 -10.7,9.89 5.68,20.23 15.64,23.73 6.71,2.35 35.98,-12.32 24.13,-20.83 z m 212.87,47.7 c 4.3,16.95 -9.32,33 -0.53,36.75 12.66,5.42 21.57,-3.87 25.99,-13.74 2.55,-5.68 0.2,-20.13 -3.45,-24.43 -6.64,-7.81 -23.49,-4.41 -22.01,1.42 z m -10.08,313.66 c -6.68,1.5 -13.77,6.6 -19.63,8.98 -6.29,2.54 2.33,8.53 4.65,9.94 5.29,3.23 12.29,5.43 17.94,5.29 4.66,-0.12 19.37,-9.62 16.36,-17.05 -3.55,-8.8 -11.35,-8.95 -19.32,-7.16 z m -169.28,-161.01 c 0.75,5.19 -4.29,7.97 -2.69,10.98 2.21,4.15 9.16,4.64 14.73,9.02 8.87,6.97 8.15,19.21 -12.31,26.79 -19.41,7.19 -33.42,-4.66 -38.02,-20.58 -6.2,-21.48 10.32,-33.8 17.3,-34.72 6.29,-0.82 19.39,-2.61 20.99,8.51 z m -289.59,201.81 c 12.33,15.85 29.46,25.39 21.25,47.17 -7.99,21.21 -34.91,27.11 -54.57,27.31 -28.1,0.28 -51.38,-35.02 -38.7,-60.36 6.87,-13.7 19.83,-27.44 36.09,-27.93 19.13,-0.58 25.3,0.13 35.93,13.81 z m 542.09,-225.78 c -9.72,1.06 -20.01,7.96 -19.7,18.55 0.1,3.75 0.78,7.27 2.09,10.46 2.27,5.57 6.69,10.28 12.11,12.92 5.16,2.51 10.68,2.65 15.91,0.28 4.87,-2.2 11.41,-6.66 9.09,-12.9 -1.6,-4.28 -5.68,-8.99 -6.44,-12.76 -0.87,-4.36 1.14,-8.95 -1.79,-12.68 -2.98,-3.83 -6.71,-4.36 -11.27,-3.87 z m -473.4,-212.7 c -2.51,14.8 -6.44,34.6 5,45.83 7.1,6.97 17.9,4.85 24.73,-2.5 13.5,-14.52 11.59,-40.75 -0.77,-55.25 -9.48,-11.11 -26.92,-0.13 -28.96,11.92 z m -261.53,60.64 c -13.5,-6.8 -25.39,-11.53 -31.87,4.72 -2.08,5.2 -2.06,13.75 0.75,18.59 0.8,1.37 2.5,2.85 4.37,3 10.83,0.86 25.54,-11.69 28.33,-21.73 0.42,-1.49 -0.01,-3.79 -1.58,-4.58 z m 15.29,-22.34 c -17.99,-7.7 -41.4,-14.3 -56.96,1.19 -6.55,6.53 -9.65,18.05 -10.77,26.88 -1.83,14.47 3.42,30.63 14.07,40.42 3.21,2.95 7.38,5.33 11.71,7.06 9.13,3.67 20.79,3.29 29.52,-1.42 16.51,-8.91 25.57,-19.45 36.63,-34.86 2.59,-3.61 7.91,-5.73 8.76,-10.31 1.19,-6.36 -2.63,-10.02 -7.85,-13.45 -8.31,-5.46 -16.25,-11.72 -25.11,-15.51 z m -89.94,257.58 c 6.35,33.69 16.38,66.1 29.67,96.8 9.54,-4.61 17.91,-11.49 23.55,-19.88 10.16,-15.09 12.86,-34.1 3.16,-50.35 -2.72,-4.56 -7.78,-6.08 -12.82,-7 -4.51,-0.83 -16.3,3.76 -19.4,0.27 -1.05,-1.19 0.93,-3.16 2.31,-4.41 3.11,-2.84 7.09,-4.87 10.81,-7.35 5.75,-3.83 10.06,-6.95 12.57,-13.38 1.7,-4.34 -0.67,-8.16 -4.18,-10.51 -8.26,-5.5 -25.5,2.12 -32.73,6.75 -4.06,2.6 -8.48,5.64 -12.94,9.06 z m 252.19,-499.45 c -15.3,7.44 -30.12,15.71 -44.43,24.73 14.68,5.53 28.45,13.57 37.59,20.27 39.85,29.21 98.08,111.34 35.76,150.02 -13.54,8.4 -45.26,7.97 -54.06,-7.22 -2.58,-4.44 -12.57,-32.42 -6.15,-36.72 13.79,-9.23 40.78,2.65 53.38,5.35 13.75,2.94 -0.26,-21.45 0.28,-28.13 0.35,-4.51 1.93,-8.85 -0.4,-12.58 -10.95,-17.54 -43.47,-22.16 -59.49,-9.04 -30.37,24.87 -45.4,68.82 -24.66,105.22 7.91,13.88 19.96,12.31 34.82,12.66 41.96,0.99 102.19,-9.58 119.95,-53.9 2.6,-6.49 4.38,-15.31 4.94,-24.65 1.81,-30.28 -17.93,-66.28 -33.06,-91.72 -17.08,-22.24 -39.67,-41.75 -64.47,-54.29 z m 376.59,-10.64 c -13.44,-5.61 -27.2,-10.61 -41.25,-14.94 -25.89,20.82 -52.11,40.97 -79.14,60.93 -1.24,0.9 -5.38,3.89 -10.15,7.31 -11.85,-10.74 -23.91,-19.04 -28.75,-20.98 -43.32,-17.38 -93.05,3.4 -119.65,40.08 -9.61,13.25 -11.89,31.94 9.34,28.14 9.67,-1.73 15.47,-4.51 23.63,-9.93 17.89,-11.89 34.57,-28.52 55.99,-17.66 4.93,2.49 10.92,8.23 16.78,15.18 -8.86,5.77 -23.83,17.63 -24.49,18.49 -4.96,6.58 -1.86,13.24 5.53,14.91 11.26,2.55 19.82,2.78 29.04,-0.42 2.81,-0.85 6.35,-2.38 9.7,-4.13 1.69,3.16 2.99,5.98 3.77,8.22 6.14,17.74 10.61,48.96 -6.2,63.83 -25.18,22.27 -48.77,28.72 -61.4,60.85 -14.49,36.86 24.91,13.79 28.51,18.28 23.1,28.75 35.42,19.35 66.32,26.58 17.57,-1.3 35.06,-8.52 44.63,-24.38 8.89,-14.73 35.8,11.63 32.7,25.77 -4.91,22.26 -18.69,39.4 -27.87,42.95 -5.11,1.98 -9.39,3.43 -10.32,1.26 -1.8,-4.29 -1.3,-3.48 -1.6,-4.92 -2.81,-13.08 -21.23,-22.4 -30.3,-12.41 -1.83,2.01 -1.88,3.71 -0.56,8.78 0.41,1.57 3.81,5.51 1.84,6.56 -1.96,1.04 -9.29,-0.81 -12.4,-2.29 -7.24,-3.48 -16.4,-2.11 -21.7,7.34 -4.46,7.92 6.94,17.69 16.71,21.34 5.99,2.24 11.56,4.18 15.83,5.68 7.56,2.65 12.69,12.45 16.74,19.17 17.04,28.28 47.16,58.64 76.55,73.39 36.76,18.44 97.22,36.46 129.57,0.52 6.98,-7.76 15.36,-29.04 15.01,-49.2 -0.54,-30.7 -32.45,-43.53 -45.98,-47.57 -27.01,-8.06 -56.62,-0.36 -62.17,32.24 -2.2,12.88 44.84,15.18 50.75,10.3 1.67,-1.39 1.48,-4.52 3.37,-5.59 21.66,-12.29 23.36,54 -1.31,56.9 -34.49,4.06 -64.72,-13.76 -92.41,-33.25 -8.7,-6.13 -38.68,-31.03 -43.09,-48.73 -3.5,-13.98 0.62,-12.39 9.04,-15.72 35.92,-14.17 47.89,-41.76 49.05,-75.9 1.09,-31.89 -17.37,-46.67 -39.78,-52.78 -11.83,-18.2 -33.7,-24.59 -42.39,-25.42 -9.77,-2.46 -19.4,-2.67 -30.49,0.2 -1.84,0.48 -3.5,1.21 -5.1,2.03 -2.81,1.13 -5.49,2.45 -7.95,3.89 -1.02,0.35 -2.09,0.61 -3.22,0.74 -3.45,0.41 -3.18,-3.04 -1.43,-4.85 7.81,-8.06 18.82,-18.91 24.61,-28.49 20.63,-34.08 18.09,-71.29 13.33,-92.39 -0.68,-2.25 -1.67,-4.56 -2.89,-6.9 30.05,-22.25 69.13,-52.5 105.65,-83.01 z m 225.32,200.96 c -9.4,-16.75 -19.8,-32.86 -31.14,-48.25 -3.46,17.47 -8.49,38.59 -11.96,49.21 -11.69,35.83 -21.13,55.27 -27.82,63.31 -2.35,2.82 -4.69,5.43 -6.82,7.89 -0.35,-0.31 -0.71,-0.62 -1.08,-0.93 -8.84,-9.84 -32.06,-5.42 -29.39,-27.17 0.75,-15.07 30.11,-61.77 10.86,-73.38 -9.6,-5.79 -11.46,-16.13 -14.06,-28 0.62,-2.87 1.15,-5.68 1.69,-8.27 1.32,-4.69 20.07,-5.31 29.5,-6.51 2.68,-0.65 16.21,-1.46 28.91,-1.61 -7.26,-8.54 -14.83,-16.8 -22.68,-24.78 -10.02,0.86 -18.51,1.85 -22.96,1.29 -1.97,-0.24 -2.76,-0.44 -3.23,-2.46 -1.01,-4.48 2.69,-11.22 3.54,-15.79 0.37,-1.32 0.69,-2.54 0.99,-3.69 -8.96,-8 -18.24,-15.67 -27.81,-22.95 0.06,1.22 0.04,2.67 -0.04,4.38 -0.54,12.1 -1.75,30.18 -8.47,40.96 -0.16,0.27 -0.4,0.56 -0.65,0.86 -4.08,-2.34 -8.93,-3.57 -12.96,-2.02 -4.8,3.65 -9.16,7.46 -13.17,11.36 -5.1,0.82 -10.2,1.5 -15,2.29 -5.97,1.48 -23.57,7.19 -25.57,-0.92 -4.04,-4.34 2.29,-42.57 5.95,-48.64 20.05,-6.79 40.9,-13.76 60.12,-15.54 -10.66,-7.71 -21.68,-14.96 -32.98,-21.74 -9.11,2.6 -17.64,4.92 -25.63,5.9 -6.43,0.78 -5.17,-8.2 -5.73,-14.36 -1.49,-16.46 -16.95,-10.45 -18.7,2.58 -0.79,5.98 -1.17,17.21 -4.87,21.45 -3.86,4.41 -47.64,19.61 -52.46,21.38 -9.11,3.33 -18.86,16.25 -17.85,23.4 0.55,9.02 26.27,-2.95 32.84,-5.11 10.86,-3.56 21.07,-9.03 32.36,-8.53 1.75,0.07 1.91,2.93 1.85,4.74 -0.24,8.1 -5.42,46.05 -7.26,46.74 -3.99,1.49 -6.66,1.58 -10.94,2.98 -21.32,6.94 -32.56,7.11 -53.36,15.74 -9.49,3.95 -18.28,11.18 -17.21,18.96 1.17,8.4 11.31,2.81 23.75,-2.18 20.04,-8.05 34.17,-11.89 54.87,-13 6.58,-0.36 3.65,15.34 4.58,20.41 0.24,1.33 2.39,6.89 6.19,7.42 3.79,0.53 9.42,-2.09 13.27,-10.06 2.79,-5.77 2.65,-10.53 4.35,-18.59 3.09,-0.87 11.57,-2.46 21.61,-4.33 -7.76,10.77 -15,21.39 -23.61,31.02 -10.2,9.09 -19.36,17.24 -32.53,21.37 -10.8,3.22 -42.16,6.85 -24.74,24.78 6.89,7.1 19.29,8.24 22.63,7.75 33.97,-5.09 47.84,-22.92 79.45,-63.92 19.19,-24.88 23.25,-14.24 27.72,9.15 10.88,57.02 -10,69.35 1.79,102.61 8.41,23.97 -21.34,45.62 -10.73,62.95 15.88,25.93 48.65,14.92 73.49,17.12 50.22,4.43 86.15,22.34 80.41,80.8 -2.39,24.37 -23.79,99.64 -54.04,98.01 -36.86,-1.99 -99.71,-23.59 -132.95,3.25 -26.43,21.34 -66.65,55.78 -32.44,89.27 24.47,23.95 32.67,33.81 69.76,34.1 20.77,0.17 50.72,-13.11 62.21,-33.79 11.95,-21.53 -11.64,-44.9 -36.63,-45.38 -15.54,-0.3 -23.68,5.24 -38.11,10.63 -6.61,2.47 -16.61,6.9 -22.52,0.96 -6.33,-6.35 -3.25,-23.78 2.47,-29.35 5.96,-5.82 18.09,-3.78 26.17,-3.08 35.3,3.06 63.01,-5.53 95.4,17.29 31.52,22.19 3.66,77.18 -11.54,90.7 -35.69,31.73 -64.09,52.81 -112.46,59.65 -23.72,3.35 -60.97,2.4 -84.85,-1.21 -22.3,-3.38 -52.54,-17.35 -49.72,-22.69 16.13,-30.43 20.27,-78.25 17.75,-111.38 -8.18,-107.34 -110.68,-125.08 -199.32,-131.49 -31.96,-2.31 -79.49,13.09 -101.61,24.69 -26.86,14.08 -47.32,39.37 -39.76,69.83 3.97,16.01 14.27,32.72 22.44,44.89 17.53,26.15 41.32,39.51 71.01,46.47 38.23,8.95 68.57,5.54 89.04,-7.03 7.32,-4.5 23.95,-14.89 35.32,-28.07 16.89,-19.58 23.19,-35.07 -3.63,-54.97 -15.05,-11.17 -43.81,-19.35 -60.13,-6.17 -4.76,3.84 -29.59,24.61 -18.51,31.29 5.82,3.51 44.39,-6.63 42.49,8.94 -2.14,17.52 -22.22,25.88 -36.78,29.69 -42.4,11.14 -101.28,-41.49 -100.02,-83.19 1.95,-63.86 88.54,-46.66 130.73,-36.87 22.21,5.15 44.31,11.08 65.27,20.51 22.21,9.98 39.04,31.36 48.48,55.4 12.27,31.27 13.08,83.53 -1.64,113.96 -5.8,11.99 -15.03,26.94 -29.58,46.35 -10.12,13.51 -19.55,26.44 -33.64,36.18 -7.66,5.29 -20.08,18.15 -22.97,12.76 -2.91,-5.44 -7.04,-18.16 -8.03,-26.51 -1.33,-11.33 -2.66,-30.83 -16.77,-22.78 -7.11,4.05 -9.47,9.67 -9.5,19.13 -0.03,12.81 3.89,22.97 8.51,34.83 1.51,3.89 4.91,8.52 3.71,9.39 -23.19,16.79 -80,13.42 -106.33,8.31 -83.87,-16.31 -147.63,-69.4 -177.9,-150.38 -13.18,-35.23 -20.49,-75.3 -16.17,-112.99 2.92,-25.49 11.15,-51.04 23.82,-72.62 1.61,-2.73 1.51,-4.69 4.76,-3.88 6.47,1.61 20.98,5.92 44.37,5.73 41.2,-0.33 46.35,-26.63 27.29,-24.73 -3.36,-0.41 -34.02,-4.24 -46.36,-8.67 -4.91,-1.76 -6,-2.73 -3.3,-6.78 22.54,-33.71 57.67,-65.57 91.74,-86.49 8.22,-5.05 36.51,-20.15 33.96,-15.43 -14.07,25.98 -9.01,54.97 15.21,73.03 34.21,25.51 57.56,42.5 102.34,38.85 25.21,-2.06 45.6,-9.1 65.03,-27.58 15.98,-15.19 24.28,-31.42 1.49,-49.38 -14.1,-11.11 -31.15,-20.15 -44.28,-22.43 -15.55,-2.7 -29.85,-22.4 -44,-5.86 -47.81,55.87 77.18,17.22 63.79,56.63 -3.6,10.62 -11.66,14.86 -21.78,18.06 -36.25,11.47 -102.42,-28.51 -110.29,-64.65 -0.76,-3.48 -3.68,-17.29 12.43,-28.81 8.4,-6.02 27.98,-3.52 18.43,-19.04 -8.08,-13.13 -31.32,-3.85 -42.4,-1.28 -55.13,12.85 -103.8,58.48 -140.74,99.77 -7.52,8.42 -21.61,23.57 -23.87,26.56 -1.82,2.4 -17.89,-14.3 -24.2,-21.6 -15.99,-18.5 -14.77,-40.67 5.14,-55.88 28.95,-22.12 66.98,-30.58 82.96,-67.15 18,-41.17 -19.28,-77.76 -40.71,-108.73 -17.07,-24.68 -24.4,-49.17 -22.57,-73.77 -15.36,15.58 -29.64,32.24 -42.68,49.86 5.28,28.79 18.07,56.53 37.52,78.29 11.74,17.78 26.91,38.45 23.83,59.42 -1.52,10.4 -4.51,14.12 -13.06,18.9 -32.11,17.95 -66.12,36.08 -72.52,76.36 -2.45,30.94 15,54.83 39.31,71.97 6.5,3.77 6.13,4.29 2.8,10.39 -7.82,17.85 -13.58,36.07 -19.53,54.62 -14.39,68.18 -4.84,134.78 29.9,195.82 31.33,52.98 83.76,95.04 142.78,115.64 53.17,18.55 114.79,20.93 165.71,-5.5 11.53,7.11 22.61,13.82 35.48,18.24 39.94,13.7 82.78,10.94 108.64,-19.75 9.84,-11.68 20.37,-30.61 11.22,-45.81 -13.95,-23.18 -45.73,-24.63 -58.9,-0.31 -2.85,5.25 -4.6,9.03 -2.44,14.86 2.67,7.15 10.82,2.87 16.39,5.89 1.9,1.03 1.01,6.7 0.2,8.11 -10.89,19.18 -33.5,19.71 -53.31,16.81 -14.27,-2.09 -39.53,-13.08 -32.6,-16.42 5.36,-2.6 14.09,-8.76 19.34,-13.34 14.67,-12.77 27.9,-25.08 39.53,-40.66 5.8,-7.75 11.59,-15.58 18.7,-22.17 2.59,-2.41 6.11,0.05 9.06,1.83 50.67,30.58 97.99,34.61 160.17,23.05 68.01,-12.66 103.5,-49.19 140.24,-92.89 20.53,-24.41 37.64,-78.5 20.2,-104.99 -2.74,-7.47 -2.1,-10.35 2.61,-16.94 40.86,-43.31 68.22,-111.1 53.42,-170.95 -12.84,-28.03 -33.91,-45.95 -66.07,-45.66 -7.08,-0.05 -23.81,-6.02 -33.58,-11.41 7.14,-9.25 16.04,-27.07 28.11,-58.29 6.91,-19.54 13.17,-37.73 18.75,-56.06" /><path
         id="path20"
         style="fill:#ffffff;fill-opacity:1;fill-rule:evenodd;stroke:none"
         d="m 2218.14,1452.92 c 5.19,-7.34 4.59,-11.45 0.93,-19.37 -5.68,-6.69 -12.53,-11.31 -21.94,-10.06 -6.37,1.03 -12.85,3.4 -18.75,5.98 -1.85,-3.69 -3.63,-7.41 -5.58,-11.05 5.03,-4.53 5.66,-10.38 3.68,-16.52 -3.59,-8.26 -10.61,-12.07 -19.55,-10.65 -9.15,-15.06 -18.61,-29.85 -28.38,-44.53 -8.78,-13.22 -17.63,-26.4 -27.19,-39.08 -5.03,-6.68 -9.9,-13.46 -15.13,-20 -9.49,-11.68 -20.54,-23.87 -35.56,-27.95 -7.61,-0.37 -10.67,0.28 -17.31,4.05 -7.59,7.48 -10.85,15 -7.28,26.01 4.26,11.25 11.61,21.23 18.18,31.21 2.41,3.69 5.11,7.59 6.92,11.62 -2.54,12.8 0.55,26.33 -1.89,39.13 -8.3,43.59 -21.08,80.21 -35.68,121.93 -8.55,24.44 -17.68,48.66 -27.58,72.59 -20.52,-2.49 -37.7,5 -51.97,19.87 -11.58,12.81 -17.42,26.62 -20.12,43.31 -13.09,-7.05 -32.06,-9.51 -46.81,-9.92 -17.55,0.21 -32.57,3.45 -47.72,12.24 -15.57,11.2 -28.35,26.13 -30.88,46.06 -1.52,12.65 -2.09,25.05 -0.65,37.75 1.87,14.15 5.25,24.73 13.44,36.38 11.68,15.81 27.04,28.75 45.3,36.29 -9.5,4.46 -20.61,6.44 -28.48,13.37 -4.97,4.38 -8.21,11.78 -7.54,18.37 1.13,11.08 4.65,23.13 12.56,30.98 10.43,10.36 20.85,14.24 36.16,9.47 0.35,14.3 6.24,26.35 16.9,35.91 9.45,7.84 20.51,12.01 32.5,13.77 0.75,4.54 1.62,9.05 2.6,13.55 -2.62,-2.16 -6.7,-2.86 -9.97,-3.19 -11.98,0.59 -19.95,9.48 -25.28,19.76 -7.19,14.72 -12.71,31.63 -8.69,48.04 2.94,9.67 9.31,17.98 17.28,24.11 7.53,5.27 15.37,7.59 24.41,6.6 15.26,-2.76 27.53,-14.95 32.71,-29.3 15.47,20.07 35.87,36.76 58.58,47.98 14.3,6.65 29.52,11.66 45.15,13.96 -5.36,10.28 -10.67,20.87 -11.93,32.58 -1.79,20.01 16.19,36.03 33.41,42.49 18.89,6.25 35.8,-2.88 46,-18.21 5.55,-8.51 8.9,-17.23 7.75,-27.6 -1.6,-10.82 -7.59,-22.2 -14.77,-30.42 21.37,-4.22 41.38,-12.79 59.11,-25.43 9.96,-7.51 19.42,-16.25 26.42,-26.63 21.8,-0.17 43.11,-6.96 59.45,-22.1 15.4,-15.48 26.54,-47.98 8.75,-65.67 24.06,-9.44 48.33,-28.73 64.32,-49.31 0.14,7.4 2.44,13.75 8.27,18.57 21.59,14.72 47.19,-4.93 54.8,-25.03 8.63,-22.8 -4.06,-46.88 -30.68,-40.59 -4.36,1.18 -8.18,3.17 -11.74,5.92 3.47,-11.5 5.57,-23.33 7.48,-35.17 2.5,-18.38 -1.78,-38.64 -11.17,-54.57 -3.71,-5.69 -7.77,-10.49 -13.54,-14.19 2.39,-11.75 3.06,-23.71 2.24,-35.58 -2.57,-37.52 -21.68,-86.64 -66.55,-86.05 -10.97,0.83 -17.25,5.58 -26.86,8.4 -1.37,-16.07 -4.73,-31.84 -8.28,-47.54 -3.2,-13.87 -6.84,-27.6 -11.41,-41.08 8.89,-3.1 19.3,-4.75 25.63,-12.34 3.83,-6.86 3.5,-11.13 -0.1,-18.06 -4.03,-5.79 -8.85,-8.67 -15.84,-9.49 -7.86,-0.42 -16.47,1.96 -23.83,4.57 -2.09,-4.61 -4.12,-9.23 -6.21,-13.84 7.66,-3.68 15.55,-6.41 21.91,-12.3" /><path
         id="path22"
         style="fill:#fbbf15;fill-opacity:1;fill-rule:evenodd;stroke:none"
         d="m 2182.05,1612.56 c 0,-68.43 -33,-132.29 -66.89,-188.37 -8.39,-13.88 -31.52,-47.74 -42.72,-58.42 -4.73,-4.5 -10.5,47.57 -11.31,56.79 -3.81,43.06 -23.98,98.15 -40.87,136.61 -7.76,17.68 -17.25,25.67 -14.04,40.24 1.26,5.7 8.88,15.17 12.82,22.38 6.36,11.64 11.56,27.77 10.23,44.92 -0.95,12.26 32.06,-8.01 35.14,-11.09 10.04,-10.04 17.4,-17.33 34.93,-24.74 20.84,-84.02 16.99,-103.45 82.71,-18.32" /><path
         id="path24"
         style="fill:#d29908;fill-opacity:1;fill-rule:evenodd;stroke:none"
         d="m 2010,1598.25 c 13.4,-31.06 36.27,-89.71 47.23,-130.54 9.08,-28.4 23.06,-84.22 18.05,-111.49 -0.15,-0.86 -1.8,-7.35 0.19,-6.93 3.32,0.69 6.86,5.31 8.75,7.85 14.18,19.15 26.66,38.86 39.74,58.53 2.97,4.46 0.97,5.41 -3.51,8.4 -5.73,3.83 -13.93,10.95 -18.77,14.61 -3.52,2.65 -7.51,8.16 -8.97,7.02 -7.72,-8.74 -10.35,-10.35 -15.05,-10.09 -4.87,0.27 -2.01,6.01 -0.18,8.35 2.44,3.1 3.48,5.65 5.43,8.67 0.71,1.11 -0.23,3.32 -2.17,5.06 -2.72,3.69 -5.13,6.14 -10.94,12.63 -4.6,5.17 -8.95,15.8 0.27,12.46 1.34,-0.81 4.34,-3.6 6.24,-5.02 5.94,-4.99 5.51,-6.71 11.8,-11.52 1.77,-1.47 6.54,5.76 8.61,11.55 1.15,3.2 4.67,9.5 4.77,12 0.05,1.24 -2.21,3.71 -2.97,4.61 -11.85,9.22 -19.98,20.96 -28.83,27.84 -2.95,2.3 -5,-2.52 -7.11,-5.4 -5.61,-7.71 -11.49,-0.15 -8.48,6.81 1.37,3.19 4.51,8.87 3.95,12.06 -0.62,3.33 -17.78,23.83 -19.64,26.14 -3.53,4.35 -4.53,13.64 -1.91,16.87 2.95,4.31 12.13,-9.25 14.75,-12.26 4.32,-4.98 7.75,-10.71 13.5,-13.82 0.88,-0.48 1.81,0.89 2.32,1.8 2.27,4.09 10.96,24.41 10.25,25.3 -1.53,1.92 -2.83,2.75 -4.53,4.71 -8.49,9.76 -14.02,13.17 -21.75,23.62 -3.54,4.76 -5.74,10.94 -2.9,14.47 3.07,3.82 6.43,-1.95 11.11,-8.12 7.53,-9.92 13.39,-16.01 23.31,-22.69 3.15,-2.13 6.35,6.51 8.32,8.75 0.51,0.58 3.22,2.7 5.25,1.84 2.03,-0.87 4.05,-3.83 3.6,-8.92 -0.34,-3.68 -1.82,-6 -3.36,-10.49 3.1,-3.29 20.79,-18.16 27.59,-25.18 2.15,-1.92 3.66,1.66 4.48,3.79 2.87,9.19 16.35,7.6 15.42,-0.22 -0.6,-5.01 -2.55,-9.95 -4,-14.09 -0.73,-2.71 8.36,-8.57 12.68,-11.96 2.25,-2.22 25.41,-17.36 26.37,-15.4 3.57,7.37 11.44,30.79 13.67,40.56 4.82,21.21 5.92,33.63 4.98,39.59 -1.01,6.45 -2.53,11.89 -1.43,15.44 3.06,9.84 14.17,9.72 19.67,10.65 8.07,1.36 12.29,-4.24 5.16,-45.61 -4.9,-24.16 -9.43,-44.65 -17.72,-67.87 -0.37,-1.06 -0.62,-2.15 -0.94,-3.24 -0.48,-1.74 6.09,-4.04 8.42,-5 3.87,-1.58 8.42,-2.53 12.81,-4.37 3.05,-0.89 10.77,-2.3 9.52,-7.32 -2,-4.52 -5.57,-5.86 -9.76,-5.52 -7.47,0.6 -17.51,3.84 -23.22,6.6 -2.39,1.06 -2.78,2.73 -5.37,-2.83 -3.59,-7.67 -8.93,-20.14 -11.61,-25.65 -1.12,-2.3 -1.53,-3.91 -0.59,-4.86 5.37,-5.42 22.3,-10.27 26.95,-14.88 3.4,-3.74 -3.9,-9.61 -8.86,-9.62 -3.49,0.03 -16,3.97 -25.04,9.17 -1.86,1.08 -1.9,0.74 -3.64,-2.33 -3.44,-6.11 -8.9,-18.3 -11.24,-21.63 -3,-4.29 -3.52,-5.58 -0.92,-7.03 1.86,-0.83 3.3,-2 5.84,-4.41 1.38,-1.31 -0.26,-6.02 -3.73,-6.16 -2.48,-0.2 -6.08,0.97 -8.22,1.98 -1.49,0.7 -2.27,-0.43 -3.43,-2.44 -10.7,-18.44 -22.32,-36.27 -34.29,-54.3 -7.45,-11.22 -15.24,-22.75 -23.31,-33.47 -10.27,-13.62 -25.89,-37.41 -41.79,-43.05 -7.68,-2.73 -15.06,4.57 -12.75,12.44 3.99,13.65 24.37,37.13 26.52,47.53 -1.64,6.07 -1.66,10.45 -1.49,16.67 1.38,51.92 -22.16,104.33 -36.79,146.32 -9.19,26.36 -18.99,51.88 -29.76,77.69 -0.88,2.1 -7.17,16.59 -8.11,18.58 z m 114.88,-102.8 c -0.79,1.21 -1.36,2.6 -0.54,4.17 3.92,9.16 4.57,9.52 7.22,19.03 0.94,2.52 1.11,6.95 2.93,8.86 0.83,0.88 1.28,0.73 2.33,0.27 3.1,-1.37 8.86,-6.11 15.57,-10.67 5.37,-3.65 11.42,-7.11 17.2,-10.11 1.45,-0.76 3.65,-1.45 1.63,-5.62 -3.66,-7.6 -7.35,-15.49 -12.82,-26.08 -1.33,-2.01 -2.38,-3.63 -5.78,-1.66 -8.29,4.83 -23.17,14.84 -27.74,21.81 z m -19.13,15.61 c -9.91,6.55 -18.91,17.05 -27.52,27.17 -0.01,4.09 8.18,24.89 11.48,25.84 3.39,3.42 10.41,-4.62 12.93,-7.12 4.85,-4.11 10.6,-8.39 14.73,-13.22 0.77,-0.77 2.22,-3.83 2.25,-5.35 0.13,-7.33 -4.63,-16.64 -7.95,-22.79 -2.88,-5.35 -4.01,-4.96 -5.92,-4.53 z m 22.14,-75.77 c -3.91,3.48 -22.38,16.43 -24.91,20.68 -0.87,1.47 5.14,11.45 6.11,13.42 1.95,2.67 4.05,7.31 5.81,10.49 0.85,1.52 1.98,-0.93 4.1,-2.39 6.8,-4.67 17.31,-12.58 26.08,-18.15 1.07,-0.68 3.79,-2.01 1.86,-5.36 -2.47,-4.22 -8.72,-14.41 -11.82,-20.09 -1.74,-3.16 -4.91,0.06 -7.23,1.4 z m -130.23,187.47 c 2.86,-3.15 6.72,-9.76 6.52,-12.03 -0.58,-6.83 -14.81,-5.82 -19.14,-4.68 -1.62,0.43 -8.7,18.94 -8.79,19.78 -0.51,4.73 3,7.1 7.15,5.75 6.34,-2.08 10.64,-4.51 14.26,-8.82" /><path
         id="path26"
         style="fill:#d29908;fill-opacity:1;fill-rule:evenodd;stroke:none"
         d="m 2352.36,1829.73 c -8.06,5.62 -15.03,16.63 -16.4,24.48 -1.03,5.82 -1.74,15.84 4.96,17.76 4.29,1.23 9.06,0.84 13.44,-0.13 6.83,-1.53 12.05,-6.37 15.98,-12.28 3.16,-4.75 6.83,-11.35 7.24,-17.22 0.37,-5.3 -2.27,-12.85 -7.83,-14.73 -6.5,-2.19 -11.64,-1.89 -17.39,2.12 z m -93.81,-157.51 c -4.5,3.4 -7.54,9.86 -4.25,15.02 1.16,1.83 2.54,3.37 4.12,4.56 2.79,2.08 6.37,3.11 9.82,2.8 3.32,-0.28 6.09,-1.85 7.97,-4.57 1.76,-2.53 3.68,-6.69 0.68,-9.08 -2.07,-1.64 -5.47,-2.77 -6.97,-4.41 -1.73,-1.9 -2.09,-4.77 -4.64,-5.75 -2.61,-1.01 -4.62,-0.17 -6.73,1.43 z m -189.98,388.85 c -4.29,0.07 -7.67,8.18 -8.63,11.26 -2.46,7.91 -0.26,16.99 5.48,22.96 4.57,4.77 19.21,12.29 22.94,2.59 0.98,-2.55 0.99,-5.86 0.02,-8.42 -2.42,-6.46 -5.22,-12.79 -8.36,-18.86 -2.21,-4.25 -6.07,-9.62 -11.45,-9.53 z m -5.68,-11.85 c -2.84,0.86 -5.12,2.57 -6.47,5.17 -4.99,9.62 -10.4,19.11 -11.94,29.9 -0.3,2.13 -0.26,4.34 0.16,6.46 1.7,8.48 7.16,12.39 13.39,17.78 2.73,2.38 6.18,3.93 9.47,5.6 3.86,1.94 7.93,2.36 12.19,2.01 7.37,-0.62 14.04,-4.11 18.67,-9.98 3.94,-4.99 7.8,-11.13 9.02,-17.54 1.8,-9.37 -4.32,-20.16 -9.4,-27.45 -3.07,-4.4 -8.08,-9.16 -13.23,-10.98 -5.76,-2.04 -15.77,-2.82 -21.86,-0.97 z m -213.24,-234.47 c -8.7,0.64 -15.98,1.82 -14.38,11.79 0.52,3.19 3.06,7.41 5.89,8.98 0.79,0.45 2.08,0.67 3.04,0.19 5.62,-2.79 9.18,-13.36 7.6,-19.15 -0.24,-0.87 -1.14,-1.88 -2.15,-1.81 z m 0.95,-15.59 c -11.19,1.52 -24.73,5.2 -27.84,17.48 -1.31,5.17 0.57,11.79 2.63,16.5 3.38,7.7 10.77,14.14 18.95,15.83 2.46,0.51 5.23,0.45 7.89,0.03 5.6,-0.89 11.26,-4.53 14.19,-9.45 5.53,-9.31 6.89,-17.21 7.8,-28.12 0.21,-2.55 2.22,-5.18 1.28,-7.7 -1.3,-3.5 -4.27,-4.18 -7.87,-4.33 -5.73,-0.24 -11.52,-0.98 -17.03,-0.24 z m 290.05,-40.25 c 1.91,2.36 0.25,5.22 1.93,6.25 2.31,1.4 5.91,-0.42 9.96,0.09 6.46,0.82 9.73,7.1 1.84,16.91 -7.48,9.32 -17.92,7.6 -24.91,1.08 -9.44,-8.8 -4.92,-19.78 -1.73,-22.31 2.87,-2.28 8.82,-7.04 12.91,-2.02 z m -179.5,-51.68 c 3.14,8.07 7.07,19.03 16.06,21.2 5.58,1.35 10.3,-2.9 11.5,-8.57 2.38,-11.18 -6.34,-23.61 -16.76,-27.12 -7.99,-2.69 -13.36,7.91 -10.8,14.49 z m -60.81,224.75 c -5.72,-0.28 -12,8.61 -14.2,13.04 -6.01,12.06 -13.05,31.72 -5.89,44.43 7.44,13.19 20.99,22.91 35.52,13.2 8.98,-5.99 15.24,-16.6 15.79,-27.01 0.56,-10.48 -3.74,-20.68 -13.35,-25.86 -2.7,-1.45 -5.66,-0.7 -8.43,0.34 -2.48,0.92 -6.96,6.69 -9.52,5.88 -0.87,-0.28 -0.48,-1.84 -0.17,-2.87 0.71,-2.32 2.07,-4.52 3.18,-6.84 1.71,-3.6 2.92,-6.42 2.26,-10.35 -0.45,-2.65 -2.75,-3.84 -5.19,-3.96 z m 156.77,12.67 c 10.8,4.2 22.1,3.85 24.49,17.06 2.33,12.86 -9.24,23.77 -18.92,29.69 -13.83,8.47 -35.81,-2.11 -37.04,-18.41 -0.67,-8.82 1.68,-19.46 9.58,-24.52 9.3,-5.96 12.56,-7.44 21.89,-3.82" /><path
         id="path28"
         style="fill:#c4122e;fill-opacity:1;fill-rule:evenodd;stroke:none"
         d="m 2064.69,1669.66 c -3.99,-0.32 -19.37,6.34 -20.55,10.36 -2.37,8.07 8.81,8.33 14.78,7.11 4.01,-0.82 14.16,-16.76 5.77,-17.47 z m 119.51,-39.46 c 7.15,7.11 5.18,19.09 10.64,18.34 7.87,-1.07 9.52,-8.31 8.79,-14.5 -0.43,-3.57 -5.88,-10.04 -8.94,-11.07 -5.61,-1.91 -12.95,4.78 -10.49,7.23 z m 87.98,158.25 c -2.86,2.73 -4.86,7.36 -7.06,10.27 -2.36,3.12 3.69,3.53 5.25,3.55 3.58,0.02 7.7,-0.96 10.45,-2.71 2.27,-1.44 6.74,-10.49 3.05,-13.29 -4.37,-3.3 -8.28,-1.07 -11.69,2.18 z m -185.07,-143.19 c -11.24,-5.51 -23.97,-2.19 -28.52,-0.03 -5.56,1.68 -10.39,4.43 -15.03,9.14 -0.77,0.78 -1.37,1.64 -1.92,2.51 -1.06,1.4 -1.99,2.85 -2.78,4.29 -0.41,0.48 -0.86,0.92 -1.38,1.32 -1.58,1.23 -2.48,-0.57 -2.14,-1.98 1.48,-6.31 3.71,-14.93 3.74,-21.4 0.1,-22.98 -12.18,-40.65 -20.79,-49.68 -10.52,-9.53 -39.02,-12.72 -45.05,-11.76 -26.6,4.23 -45.06,29.26 -47.36,55.31 -0.82,9.4 3.59,19.33 12.97,11.16 4.28,-3.73 6.32,-6.82 8.75,-11.92 5.34,-11.19 8.66,-24.36 22.49,-25.35 8.85,-0.62 29.35,8.82 35.45,13.93 8.29,6.95 19.76,21.08 15.85,33.43 -5.86,18.48 -15.63,28.67 -12.36,48.32 3.75,22.54 16.42,-0.55 19.53,0.6 19.96,7.39 23.28,-0.92 40.72,-6.5 8.3,-5.84 14.82,-14.61 14.86,-25.29 0.03,-9.93 21.17,-4.86 23.82,3.06 4.17,12.47 2.43,25.04 -1.07,29.53 -1.94,2.49 -3.63,4.48 -4.72,3.67 -2.17,-1.58 -1.68,-1.33 -2.27,-1.95 -5.26,-5.65 -17.14,-4.81 -18.67,2.83 -0.31,1.54 0.17,2.39 2.32,4.52 0.67,0.65 3.52,1.59 2.86,2.7 -0.67,1.1 -4.84,2.36 -6.82,2.54 -4.61,0.42 -8.74,3.82 -8.56,10.06 0.14,5.24 8.68,6.7 14.6,5.61 3.63,-0.66 6.95,-1.35 9.52,-1.87 4.52,-0.93 9.97,2.4 13.96,4.53 16.83,8.95 40.73,15.05 59.64,13.64 23.67,-1.76 58.95,-10.77 64.31,-38.15 1.16,-5.9 -1.01,-18.92 -7.16,-28.8 -9.36,-15.04 -28.96,-11.93 -36.86,-9.92 -15.75,4.01 -28.13,16.6 -21.22,34.38 2.74,7.04 26.7,-5.77 28.18,-9.94 0.43,-1.18 -0.61,-2.67 0.02,-3.76 7.08,-12.51 27.55,19.81 16.21,28.55 -15.87,12.23 -36.12,12.37 -55.61,10.93 -6.11,-0.45 -28.34,-3.9 -35.78,-11.35 -5.86,-5.89 -3.36,-6.32 -0.18,-10.46 13.58,-17.66 11.33,-34.87 1.8,-52.12 -8.92,-16.11 -22.44,-17.95 -35.35,-14.33 z m 1.5,-8.72 c 5.52,1.47 12,-1.64 13.5,-2.88 15.31,-12.59 16.89,-25.52 20.39,-55.18 2.13,-18.01 7.29,-13.95 16.44,-3.69 22.28,25 15.6,37.29 31.29,50.26 11.27,9.38 2.96,28.91 13.34,34.34 15.55,8.14 28.52,-7.02 41.47,-13.3 26.17,-12.68 49.27,-14.47 63.75,16.18 6.04,12.76 17.75,56.37 2.29,64.53 -18.83,9.94 -56.34,17.87 -64.85,41.01 -6.76,18.4 -16.46,47.37 10.4,53.81 19.22,4.6 26.19,7.06 44.65,-3.79 10.32,-6.08 21.22,-21.52 20.77,-35.17 -0.46,-14.2 -19.06,-18.78 -31.58,-11.61 -7.77,4.46 -10.17,9.61 -15.71,16.56 -2.53,3.18 -6.19,8.34 -10.87,7.14 -5.02,-1.26 -8.66,-10.8 -7.47,-15.25 1.22,-4.65 7.84,-7.24 12.04,-9.29 18.38,-8.94 29.55,-21.4 52.36,-19.71 22.17,1.64 24.67,37.12 21.15,48.32 -8.26,26.29 -16.06,45.14 -37.99,62.86 -10.74,8.69 -29.47,19.26 -42.36,24.55 -12.05,4.94 -31.15,6.98 -31.34,3.51 -1.03,-19.85 -13.15,-44.75 -24.23,-60.4 -35.85,-50.72 -91.85,-29.13 -137.64,-6.03 -16.51,8.33 -35.47,30.05 -42.99,42.34 -9.12,14.94 -11.75,33.51 1.02,46.35 6.71,6.75 16.76,11.97 24.41,15.58 16.44,7.75 32.17,7.32 48.94,1.95 21.58,-6.89 35.58,-17.57 41.99,-29.86 2.29,-4.4 7.44,-14.47 9.16,-24.37 2.56,-14.69 1.09,-24.23 -18.09,-26.14 -10.76,-1.07 -27.42,3.41 -31.6,14.77 -1.21,3.31 -7.34,20.95 0.12,20.98 3.92,0.01 20.01,-16.44 23.69,-8.17 4.12,9.31 -3.34,19.4 -9.42,25.61 -17.69,18.07 -62.44,9.47 -74.17,-11.55 -17.95,-32.19 30,-49.34 53.79,-57 12.52,-4.03 25.23,-7.64 38.39,-9.19 13.96,-1.64 28.64,3.95 40.42,13.06 15.34,11.84 31.24,37.48 32.96,56.9 0.68,7.66 0.55,17.79 -0.9,31.71 -1.01,9.69 -1.84,18.89 -5.93,27.89 -2.23,4.89 -4.57,14.94 -7.59,13.12 -3.06,-1.82 -8.87,-6.91 -11.83,-10.75 -4.02,-5.21 -10.46,-14.46 -15.06,-6.3 -2.31,4.11 -1.81,7.59 0.98,12.28 3.77,6.36 8.73,10.23 14.53,14.73 1.9,1.47 4.95,2.76 4.61,3.54 -6.49,15.19 -35.63,30.36 -50.17,35.63 -46.35,16.78 -93.65,9.4 -132.64,-21.71 -16.96,-13.54 -32.46,-31.21 -41.49,-51.15 -6.11,-13.48 -9.61,-28.57 -9.73,-43.01 -0.02,-1.83 -0.64,-2.77 1.2,-3.33 3.69,-1.13 12.15,-3.3 23.67,-10.32 20.3,-12.37 15.05,-26.92 6.18,-20.32 -1.79,0.79 -18.1,7.97 -25.52,9.44 -2.95,0.59 -3.78,0.43 -3.64,-2.38 1.16,-23.36 9.11,-49.55 19.78,-70 2.57,-4.94 12.1,-20.8 12.23,-17.71 0.74,17.03 11.84,29.88 29.18,31.65 24.49,2.49 41.1,3.98 62.18,-11.1 11.88,-8.49 19.87,-18.02 24.02,-32.93 3.4,-12.26 2.7,-22.76 -13.9,-24.88 -10.28,-1.33 -21.39,-0.75 -28.57,2.02 -8.5,3.26 -21.41,-2.24 -23.52,10.13 -7.11,41.83 43.32,-14.35 48.37,9.13 1.35,6.33 -1.38,10.82 -5.42,15.4 -14.56,16.42 -59.16,16.24 -73.78,0.68 -1.4,-1.5 -6.94,-7.47 -2.38,-17.94 2.38,-5.48 12.81,-10.04 3.48,-14.9 -7.89,-4.1 -16.64,7.38 -21.37,11.94 -23.48,22.7 -34.05,59.71 -40.1,91.11 -1.23,6.39 -3.71,18.07 -3.95,20.21 -0.19,1.73 -13.09,-1.77 -18.38,-3.51 -13.4,-4.42 -19.36,-15.76 -14.02,-29.2 7.78,-19.53 24.1,-34.98 21.17,-57.82 -3.29,-25.72 -32.59,-32.78 -52.38,-41.77 -27.95,-12.69 -40.57,-34.14 -39.93,-64.3 0.47,-22.64 35.79,-25.78 52.78,-24.2 28.38,2.64 81.55,26.04 62.16,63.67 -4.21,8.17 -20.04,17.35 -28.9,12.44 -2.59,-1.43 -15.83,-12.32 -13.92,-16.36 4.09,-8.65 20.97,-10.77 28,-13.16 7.69,-2.63 -6.48,-10.55 -8.2,-14.02 -1.15,-2.33 -1.66,-4.95 -3.92,-6.1 -10.62,-5.45 -28.08,1.91 -32.13,13.15 -7.67,21.32 -2.08,47.53 18.98,59.4 8.03,4.53 13.53,0.18 20.99,-4.05 21.07,-11.95 47.75,-35.03 43.4,-62.24 -0.63,-3.98 -2.36,-8.87 -4.85,-13.66 -8.08,-15.53 -28.53,-27.5 -43.55,-35.61 -40.23,-15.9 -94.23,-10.47 -106.43,37.64 -2.64,19.77 -3.01,39.19 4.29,58.09 11.32,20.53 30.96,37.4 53.63,44.46 11.07,5.32 24.71,11.06 29.4,22.35 2.33,5.6 1.95,8.32 -0.86,13.22 -10.58,18.41 -22.04,37.46 -13.27,59.3 7.95,16.04 23.67,22.7 40.79,23.98 4.33,-0.06 4.3,0.31 4.46,4.31 1.42,11.16 3.97,21.89 6.53,32.83 13.07,38.02 37.54,68.16 72.83,88.08 31.21,16.94 69.64,22.23 104.95,14.94 31.82,-6.58 63.04,-23.67 80.41,-51.85 7.82,0.11 15.3,0.15 22.97,-1.48 23.84,-5.05 44.22,-19.12 47.93,-41.97 1.41,-8.71 1.02,-21.2 -8.02,-26.01 -13.78,-7.34 -29.94,1.36 -29.25,17.31 0.14,3.44 0.4,5.83 3.19,8.07 3.45,2.76 6.22,-1.78 9.87,-1.94 1.23,-0.05 2.47,3.02 2.49,3.95 0.3,12.73 -10.74,19.69 -21.4,24.13 -7.69,3.2 -23.44,5.24 -21.01,1.53 1.89,-2.87 4.39,-8.51 5.63,-12.34 3.46,-10.66 6.37,-20.68 7.52,-31.84 0.57,-5.55 1.11,-11.14 2.68,-16.52 0.57,-1.96 3.05,-1.78 5.02,-1.77 34.16,0.12 58.77,-11.91 86.13,-36.07 29.93,-26.42 36.66,-55.02 41.9,-87.55 2.93,-18.16 -4.63,-50.01 -21.11,-57.97 -3.58,-2.88 -4.12,-4.49 -3.74,-9.15 7.4,-33.55 0.85,-75.22 -24.21,-100.46 -14.67,-10.07 -30.41,-12.69 -46.24,-3.02 -4.72,2.78 -21.14,5.42 -24.9,3.86 -7.09,-2.95 -9.9,-9.21 -23.72,-11.43 -7.29,-2.26 -17.47,6.82 -22.59,-4.75 -4.11,-7.67 -3.41,-39.5 -16.38,-39.54 -12.37,-0.05 -15.65,-16.71 -32.99,-21.94 -3.55,-1.07 -8.83,-0.75 -11.22,2.28 -7.99,20 -5.93,37.67 -9.24,54.87 -2.35,7.53 -4.47,14.28 -9.77,20.22 -4.39,4.8 -18.84,15.89 -4.91,19.61" /><path
         id="path30"
         style="fill:#ffffff;fill-opacity:1;fill-rule:evenodd;stroke:none"
         d="M 3390.14,0 661.18,0.21875 643.309,2.03906 C 610.32,7.96875 583.922,19.7891 557.551,40.5508 L 544.98,51.9805 c -25.121,26.3398 -40.14,54.0975 -48.371,89.6095 -5.711,31.808 -4.531,62.09 5.942,92.871 -4.063,-6.57 -8.289,-12.832 -12.801,-19.082 C 464.969,183.75 435.031,164.262 397.602,150.43 340.199,131.27 277.43,129.141 219.98,149.301 l -12.109,4.84 c -40.531,18.339 -73.543,45.879 -99.762,81.8 -9.4957,9.59 -18.066,20.137 -26.0582,31.02 C 30.7891,338.75 10.707,425.77 3.04688,512.352 -2.52344,586.66 -0.742188,661.629 10.8281,735.32 c 16.4571,95.071 52.375,194.719 128.6599,258.18 28,22.36 58.153,37.68 93.422,44.75 46.149,8.47 98.891,6.46 140.352,-17.31 18.758,25.2 48.718,27.54 77.609,24.85 12.539,-1.92 21.82,-4.73 33.309,-10.16 l 11.011,-8.05 11.2,-15 1.218,-5.95 c 11.172,-5.41 16.922,-14.439 24.02,-24.11 l 3.223,-16.032 c -0.153,-20.16 -0.282,-40.328 -0.282,-60.468 14.719,26.781 31.469,49.98 52.918,71.781 l 15.633,13.879 c 21.219,16.27 41.117,26.96 66.68,34.96 17.719,4.28 33.961,6.39 52.211,6.04 28.199,-1.62 52.347,-8.59 77.199,-21.86 29.391,-16.949 53.437,-39.66 73.32,-67.05 6.258,-6.34 12.117,-13.098 17.68,-20.04 -5.731,24.282 -5.32,46.61 2.937,70.258 l 6.954,12.132 15.367,13.77 17.801,4.02 c 71.31,-0.04 142.6,-0.04 213.89,0 l 19.23,-6 c 8.2,-8.67 16.84,-16.3 20.38,-28.101 l 3.39,-0.981 14.12,-13.75 6.37,-11.68 4.9,-17.539 c 2.39,-18.488 1.71,-34.64 -2.7,-52.769 l -8.78,-19.34 -11.92,-12.891 -15.58,-6.418 -7.58,-1.171 c -0.38,-39.219 -0.54,-78.461 -0.57,-117.661 24.59,15.469 52.7,18.532 80.77,13.532 l 16.82,-5.172 c 18.37,-8.34 30.3,-17.559 42.91,-33.297 l 6.42,-10.473 c 3.37,-2.66 6.64,-5.449 9.57,-8.539 0,59.442 -0.05,118.91 -0.05,178.399 -5.06,5.429 -8.52,11.492 -10.94,18.582 l -5.86,2.238 -12.4,13.32 -8.7,19.571 c -4.78,20.839 -4.92,39.441 -0.24,60.339 l 3.19,9.211 6.29,11.41 13.55,13.32 18.25,5.86 c 49.34,-0.02 98.69,0.22 148.01,-0.04 40.41,-0.14 78.66,-3.75 116.85,-17.75 7.59,-3.01 14.86,-6.268 22.14,-9.89 33.46,-17.929 61.43,-43.339 83.6,-74 87.74,-91.761 103.35,-228.808 88.17,-349.71 -6.23,-43.649 -17.51,-84.329 -37.32,-123.84 -12.81,-24.071 -27.41,-44.961 -46.05,-64.891 -10.67,-10.738 -21.63,-20.348 -33.83,-29.309 h 258.65 c -7.01,7.891 -12.71,16.911 -20.08,24.348 -31.23,32.973 -50.92,71.801 -55.54,117.293 -1.96,26.539 1.93,50.059 10.95,75.078 9.3,23.121 21.06,42.262 37.95,60.641 16.52,16.449 36.62,31.172 59.34,37.601 l -0.85,1.129 c -27.95,29.86 -49.37,61.989 -62.41,101.02 -15.75,50.762 -15.57,105.582 6.87,154.449 14.65,29.922 33.68,54.301 59.91,74.961 21.42,15.86 43.28,26.29 69.06,33.01 25.05,5.64 48.03,6.27 73.34,2.19 21.23,-4.24 40.72,-11.37 60.72,-19.4 l 10.43,6 c 24.64,8.94 50.74,10 76.12,3.65 l 10.27,-4.16 13.58,-9.75 6.41,-10.99 2.39,4.33 17.81,14.16 18.67,3.87 h 325.98 l 18.68,-3.85 17.8,-14.14 9.06,-17.01 16.06,-12.75 8.77,-15.859 c 2.7,-10.571 4.16,-18.77 4.23,-29.59 -0.33,-7.91 -0.29,-15.82 -0.29,-23.731 23.24,41.809 52.89,78.282 94.49,102.89 19.58,10.45 38.19,16.95 60.04,20.8 21.76,2.83 41.23,2.22 62.76,-1.94 21.83,-5.25 40.11,-13 59.15,-24.84 23.52,-16.089 43.26,-35.82 59.94,-58.831 l 2.03,-2.09 c -2.3,19.031 0.94,35.902 8.48,53.383 l 7.81,11.388 13.9,11.23 16.89,4.94 h 143.39 c 27.84,-0.9 51.33,-11.29 66.38,-35.512 l 9.47,18.072 14.5,12.69 17.53,4.75 c 55.5,-0.04 111.02,-0.04 166.56,0 l 19.74,-8.14 6.63,-7.91 7.99,8.49 18.8,7.56 h 412.32 l 11.5,-1.6 12.3,-4.06 12,-7.37 9.86,-10.17 7.81,-15.019 7.45,-4.57 9.87,-10.18 6.58,-11.371 c 3.42,-10.109 5.17,-17.871 5.85,-28.468 0.8,-58.672 2.43,-117.332 3.26,-175.961 -0.17,-8.321 -1.34,-15.121 -3.23,-23.219 l -5.84,-12.582 -11.49,-12.91 -16.57,-8.649 c -18.64,-2.543 -36.76,-2.269 -55.56,-1.883 V 501.781 c 12.57,0 24.08,-0.23 36.64,-1.972 l 16.54,-8.61 c 6.57,-7.39 15.07,-15.73 17.39,-25.75 l 7.74,-4.019 11.49,-12.93 5.85,-12.578 c 1.89,-8.121 3.07,-14.922 3.23,-23.223 -0.94,-65.527 -3.28,-131.058 -4.27,-196.578 -0.26,-9.223 -1.23,-17.09 -3.35,-26.082 l -3.75,-9.41 -6.29,-9.731 -8.62,-8.429 -9.68,-6.059 c -9.08,-3.59 -16.32,-5.59 -25.94,-6.91 l -15.11,-0.672 -399.46,0.024 -17.49,4.058 c -10.33,8.66 -19.31,15.219 -24.2,28.25 1.1,-43.582 -13.78,-82.66 -40.47,-116.6209 L 3514.86,51.9805 C 3488.51,26.8398 3460.73,11.8203 3425.26,3.60156 3413.37,1.46875 3402.19,0.300781 3390.14,0" /><path
         id="path32"
         style="fill:#c4122e;fill-opacity:1;fill-rule:evenodd;stroke:none"
         d="m 1497.72,454.051 c 0.68,-11.512 -0.83,-16.551 11.82,-17.762 59.38,-1.769 64.1,66.313 68.05,110.59 4.92,55.062 5.58,110.57 5.14,165.84 -0.31,39.261 -1.58,78.531 -6.39,117.562 -3.82,30.969 -10.41,79 -44.84,92.008 -30.42,8.512 -33.98,-0.391 -33.99,-26.519 -0.05,-144.981 -0.04,-289.969 0.03,-434.969 0,-1.871 0.13,-4.879 0.18,-6.75 z m -162.96,-74.242 c -9.04,-0.18 -10.34,53.121 0,54.242 8.14,1.25 23.42,1.578 29.56,7.789 3.68,4.941 3.69,13.301 3.83,19.16 -0.03,147.359 -0.07,294.75 -0.1,442.148 -1.04,13.692 -2.76,18.071 -16.68,21.153 -5.54,0.859 -11.07,1.738 -16.61,2.621 -10.81,0.797 -11.62,53.469 0,53.789 48.54,-0.02 97.08,0.211 145.61,-0.039 55.09,-0.313 105.44,-8.383 148.3,-45.613 87.97,-76.418 103.96,-211.188 91,-320.329 -8.48,-71.39 -34.88,-143.609 -92.76,-189.609 -40.62,-32.262 -90.62,-45.312 -141.91,-45.312 -50.08,0 -100.16,0 -150.24,0" /><path
         id="path34"
         style="fill:#c4122e;fill-opacity:1;fill-rule:evenodd;stroke:none"
         d="m 715.551,933.988 c -27.699,-0.218 -35.531,-43.578 -38.84,-64.008 -6.391,-39.332 -7.973,-79.511 -9.02,-119.308 -1.652,-62.012 -1.601,-124.32 1.829,-186.293 1.55,-28.16 3.66,-56.559 9.531,-84.219 4.039,-19.101 17,-63.109 46.199,-49.961 19.309,8.692 25.93,43.692 28.961,61.871 6,35.918 7.719,72.52 8.859,108.852 1.95,62.656 1.84,125.629 -1.218,188.219 -1.461,29.769 -3.442,59.769 -9.141,89.031 -3.57,18.34 -12.481,56.027 -37.16,55.816 z M 904.461,680.16 C 904.41,585.609 880.281,477.781 809.34,410.102 787.922,389.691 760.359,374.828 730.801,371.121 635.422,359.129 572.648,456.059 547.211,534.98 c -27.492,85.399 -28.231,184.649 -5.949,270.399 21,80.781 78.527,184.211 174.16,184.211 89.258,0 145.719,-91.27 169.078,-166.559 14.309,-46.109 19.988,-94.672 19.961,-142.871" /><path
         id="path36"
         style="fill:#c4122e;fill-opacity:1;fill-rule:evenodd;stroke:none"
         d="m 1235,379.809 c 32.88,-1.079 39.82,16.601 30.99,39.8 -13.54,35.551 -26.81,81.512 -29.03,88.539 -5.41,17.192 -7.16,44.18 16.63,71.293 21.13,24.079 26.85,42.321 29.59,66.129 9.19,79.821 -120.81,93.399 -130.48,-16.5 -3.7,-41.98 9.56,-100.859 33.02,-136.8 11.31,-17.321 38.02,-51.04 6.2,-62.11 -25.16,-8.75 -88.28,-15.68 -90.99,22.641 -0.03,148.629 -1.84,297.258 -0.1,445.898 0.08,6.832 2.26,20.992 10.42,22.61 10.33,2.07 18.1,3.211 28.51,4.793 11.24,1.289 12.43,54.687 0.84,54.609 -68.42,0 -134.1,0 -202.522,0 -12.328,0.801 -10.488,-54.633 0,-53.832 5.582,-0.859 11.332,-1.02 16.742,-2.598 13.25,-3.89 16.551,-6.582 16.551,-21.133 0.027,-147.378 0.07,-294.769 0.098,-442.148 -0.141,-5.859 -0.149,-14.219 -3.821,-19.16 -6.148,-6.211 -21.41,-6.539 -29.57,-7.789 -9.578,-2.071 -9.117,-53.539 0,-54.242 98.712,0 198.302,3.222 296.922,0" /><path
         id="path38"
         style="fill:#c4122e;fill-opacity:1;fill-rule:evenodd;stroke:none"
         d="m 463.738,480.59 c 10.953,-0.078 11.91,-11.168 11.883,-16.801 -0.391,-66.5 -4.48,-137.73 -45.531,-192.687 -37.942,-50.782 -111.629,-67.372 -172.789,-61.993 -65.11,5.7 -115.821,43.082 -149.91,97.52 -56.0238,89.492 -66.0238,205.41 -63.8754,308.351 2.2383,107.168 22.3516,227.739 92.0044,313.559 24.742,30.473 58.031,55.57 96.511,65.289 30.778,7.782 76.168,8.342 105.891,-3.59 12.867,-5.16 24,-13.008 35.707,-20.347 1.84,-1.172 4.473,-0.653 6.551,0 8.75,2.711 21.09,15.879 29,26.968 6.851,10.511 57.832,8.421 57.308,-4.75 -0.758,-86.168 0.371,-156.379 1.133,-241.379 0.051,-4.929 3.238,-23.968 -14.062,-24.199 -11.188,0 -25.528,0 -38.829,0 -14.781,1.149 -16.082,20.098 -17.769,27.09 -11.871,49.02 -24.973,93.059 -49.531,136.77 -9.532,16.961 -25.969,43.031 -47.77,44.89 C 262.238,938.5 248.828,877.699 244.121,852.352 219.441,719.91 221.57,567.879 235.25,432.84 c 4.27,-42.09 12.91,-143.09 74.77,-148.789 33.332,-3.071 58.621,16.148 73.992,44.199 22.09,40.328 24.726,87.672 25.027,133.039 0.051,6.473 0.211,19.531 14.531,19.301 15.43,0 17.879,0 40.168,0" /><path
         id="path40"
         style="fill:#d29908;fill-opacity:1;fill-rule:evenodd;stroke:none"
         d="m 1359.93,350.039 c -3.8,-0.07 -6.24,9.301 -7.01,20.281 44.03,0.039 88.08,-0.039 132.11,-0.019 58.36,0.058 114.98,16.789 158.77,56.719 61.07,55.679 83.14,138.652 88.21,218.41 4.38,69.379 -3.89,133.461 -28.19,198.539 43.83,-76.039 50.98,-175.098 41.01,-259 -8.47,-71.41 -34.87,-143.617 -92.75,-189.61 -40.62,-32.289 -90.62,-45.32 -141.91,-45.32 -50.08,0 -100.16,0 -150.24,0 z m 189.65,544.242 c -23.9,5.141 -26.89,-4.332 -26.89,-28.281 -0.07,-139.711 -0.05,-279.43 0.01,-419.16 -4.88,-0.82 -10.14,-1.602 -15.03,-0.66 -0.14,0.82 -0.15,1.711 -0.19,2.539 -0.17,4.043 -0.4,8.101 -0.43,12.121 -0.04,140.449 -0.08,280.879 -0.03,421.351 0,7.329 -0.08,14.668 0.2,22.008 0.28,3.442 0.42,7.41 2.15,10.512 1.38,1.641 4.99,1.129 6.84,1.059 4.89,-0.668 9.86,-1.508 14.44,-3.442 3.28,-1.656 5.98,-3.418 8.84,-5.719 4.15,-3.789 7.25,-7.738 10.09,-12.328" /><path
         id="path42"
         style="fill:#d29908;fill-opacity:1;fill-rule:evenodd;stroke:none"
         d="m 649.379,377.988 c 22.742,-12.457 47.082,-18.648 73.109,-17.168 82.114,4.668 137.762,82.41 163.903,153.379 19.468,52.891 27.507,109.731 27.57,165.942 0.078,60.781 -8.832,124.218 -33.152,180.347 28.171,-49.879 45,-111.008 47.332,-168.058 1.109,-27.328 1.531,-54.731 0.007,-82.039 C 923.5,526.59 895.621,438.602 834.512,380.32 c -21.41,-20.41 -48.981,-35.261 -78.543,-38.968 -41.989,-5.293 -77.649,10.546 -106.59,36.636 z m 86.402,525.711 c -23.722,-5 -30.793,-44.32 -33.902,-63.48 -6.379,-39.34 -7.969,-79.508 -9.027,-119.321 -1.641,-62.007 -1.59,-124.308 1.839,-186.289 1.547,-28.16 3.661,-56.578 9.528,-84.23 0.57,-2.68 1.312,-5.859 2.25,-9.301 -3.379,3.012 -5.899,7.242 -7.957,11.012 -8.672,17.172 -11.891,36.59 -14.543,55.469 -3.789,28.562 -5.168,57.48 -6.321,86.269 -2.238,59.613 -1.796,119.301 0.223,178.934 1.27,34.84 3.367,69.738 9.668,104.078 2.641,14.359 7.68,37.969 21.02,45.801 9.062,5.308 17.082,-0.903 21.972,-8.461 2.149,-3.321 3.778,-6.871 5.25,-10.481" /><path
         id="path44"
         style="fill:#d29908;fill-opacity:1;fill-rule:evenodd;stroke:none"
         d="m 1126.09,435.98 c -0.12,144.321 -1.77,288.629 -0.08,432.93 0.07,6.84 2.24,21 10.41,22.641 10.33,2.07 18.1,3.179 28.51,4.777 11.23,1.293 12.43,54.692 0.84,54.613 -2.55,0 -5.09,0 -7.62,0 -0.33,-6.191 -1.01,-12.48 -2.76,-18.421 -1.17,-3.918 -2.91,-8.239 -5.76,-11.27 -4.89,-5.211 -10.77,-4.879 -17.55,-5.93 -5.21,-0.82 -10.46,-1.41 -15.6,-2.519 -6.11,-1.352 -5.98,-9.071 -6.14,-14.301 -1.61,-148.379 -0.26,-296.738 0.09,-445.102 0.02,-9.546 7.66,-14.718 15.66,-17.418 z m 134.08,-84.839 c 20.71,-0.821 31.11,4.629 33.79,15.839 2.85,11.989 -5.69,30.821 -9.75,41.989 -10.86,31.152 -20.25,63.59 -22.08,69.41 -5.41,17.191 -7.15,44.18 16.63,71.293 21.12,24.078 26.86,42.328 29.59,66.117 2.35,20.41 -4.4,36.461 -15.91,47.262 1.15,-16.289 -0.64,-32.071 -5.91,-47.582 -5.45,-16.047 -14.77,-29.43 -25.71,-42.199 -7.25,-8.461 -12.93,-17.68 -15.84,-28.559 -3.08,-11.563 -2.21,-23.18 1.3,-34.531 8.73,-28.141 17.08,-56.231 27.35,-83.891 5.73,-15.43 9.04,-30.059 -2.73,-44.269 -15.9,-13.5 -35.56,-10.571 -54.63,-10.079 -30.82,0.661 -61.63,0.758 -92.46,0.539 -55.79,-0.48 -111.58,-1.769 -167.369,-2.101 0.668,-10.789 2.981,-20.039 6.809,-20.34 98.71,0 198.3,4.34 296.92,1.102" /><path
         id="path46"
         style="fill:#d29908;fill-opacity:1;fill-rule:evenodd;stroke:none"
         d="m 475.859,972.328 c 9.102,-1.758 16,-5.098 15.813,-9.976 -0.262,-28.602 -0.301,-55.614 -0.223,-81.883 0.141,-49.758 0.922,-99.489 0.313,-149.239 -0.114,-8.73 -0.262,-17.089 -0.473,-24.41 -0.211,-7.32 -4.84,-9.961 -12.559,-10.058 -11.191,0 -25.531,0 -38.832,0 -11.179,0.859 -14.648,11.918 -16.398,20.277 10.148,0 20.309,-0.117 30.449,0 5.66,0.031 11.16,1.75 15.442,5.52 2.64,2.332 4.839,5.613 6,8.953 1.757,5.097 2.179,10.187 1.929,15.558 -0.3,6.489 -0.281,12.989 -0.34,19.52 -0.66,68.57 -1.46,137.14 -1.121,205.738 z M 326.672,905.301 c -38.231,5.621 -52.383,-55.86 -57.391,-82.723 C 244.609,690.141 246.738,538.09 260.43,403.07 c 2.129,-21.109 5.379,-57.011 15.871,-88.3 -19.012,28.589 -25.09,62.07 -29.102,95.761 -13.73,115.289 -17.679,235.821 -6.129,351.539 3.231,32.25 7.36,64.571 13.93,96.309 7.461,36.101 30.52,101.25 71.672,46.922 z M 176.09,225.078 c 76.781,-45.367 205.558,-33.547 261.601,40.313 29.168,38.437 40.848,87.211 44.938,134.48 1.473,16.988 0.82,34 2.34,50.949 2.64,0.321 5.711,-0.07 6.761,-0.289 8.301,-1.812 9.09,-11.402 9.059,-16.5 C 500.41,367.5 496.309,296.289 455.262,241.328 417.32,190.551 343.629,173.969 282.469,179.32 c -41.5,3.649 -77.149,20.16 -106.379,45.758" /><path
         id="path48"
         style="fill:#d29908;fill-opacity:1;fill-rule:evenodd;stroke:none"
         d="m 4025.88,428.809 c 1.4,0 2.97,0 4.74,0 11.92,0.062 11.19,-12.559 11.1,-18.84 -1.06,-74.11 -2.84,-103.559 -3.91,-177.68 -1.17,-30.961 3.85,-40.25 -30.24,-40.25 -131.38,0 -262.75,0 -394.1,0 -5.9,-0.141 -9.03,9 -9.95,20.27 122.18,0 244.37,-0.02 366.56,-0.02 11.36,0 23.07,-0.801 34.11,2.383 6.73,1.937 12.58,6.656 15.05,13.316 3.06,8.262 2.59,17.09 2.7,25.782 0.05,2.699 0.12,5.371 0.21,8.05 0.81,55.68 2.75,111.309 3.73,166.989 z m -219.71,120.453 c 0,-84.942 0.01,-169.864 0.02,-254.782 l -1.44,0.04 -5.49,0.679 -4.88,1.09 c -3.18,1.512 -3.37,7.133 -3.6,10.063 -0.12,2.367 -0.18,4.75 -0.25,7.109 -0.03,83.988 -0.02,167.969 -0.02,251.949 8.76,-3.648 16.69,-8.57 23.96,-14.64 l 4.3,-4.032 c 1.08,-1.129 2.12,-2.277 3.11,-3.449 -4.94,2.242 -10.17,4.231 -15.71,5.973 z m 121.05,181.937 c 1.4,0 2.83,0 4.28,0 12.02,-0.687 11.38,-10.238 11.38,-15.359 0,-45.539 0,-89.352 0,-130.84 0,-41.48 0,-83.41 0,-128.961 0,-5.117 0.64,-14.668 -11.38,-15.348 -12.12,0 -22.34,0 -33.81,0 -15.64,0.309 -16.72,5.68 -17.18,8.528 -0.63,3.91 -1.25,7.832 -1.88,11.742 9.41,0 18.81,-0.289 28.22,0 12.95,0.367 20.37,9.84 20.37,22.66 0.04,82.52 0,165.059 0,247.578 z m -41.87,146.852 c -1.84,0.918 -3.72,1.777 -5.6,2.558 -17.08,6.032 -43.1,9.121 -61.08,6.129 -15.8,-3.277 -12.4,-23.16 -12.5,-36.148 -0.01,-58.711 -0.01,-117.442 -0.01,-176.149 -4.9,-3.3 -10.12,-6.121 -15.66,-8.421 l 0.01,214.371 c -0.05,6.718 -0.63,13.437 0.23,20.14 0.54,2.641 0.9,5 3.5,6.289 3.31,0.981 7.04,1.071 10.49,1.25 14.67,0.45 29.65,-1.441 43.72,-5.66 6.52,-2.09 12.48,-5.629 18.27,-9.262 l 7.53,-5.367 c 3.73,-3.031 7.26,-6.101 10.76,-9.383 0.12,-0.109 0.23,-0.226 0.34,-0.347 z m 131.48,72.66 c 11.64,-1.602 15.24,-9.223 15.5,-21.289 1.07,-74.121 2.14,-97.422 3.21,-171.543 0.09,-6.27 0.82,-18.867 -11.12,-18.848 -19.98,0.039 -14.66,0.617 -34.63,0 -13.7,-0.429 -15.94,9.258 -16.98,13.86 -0.47,2.109 -0.99,4.238 -1.55,6.41 8.17,0 16.36,-0.063 24.53,-0.02 2.3,0.02 4.6,0 6.9,0.219 4.36,0.391 8.64,2.77 11.57,6.031 4.3,4.828 5.52,11.559 5.63,17.848 0.08,3.73 -0.07,7.461 -0.12,11.191 l -2.94,156.141" /><path
         id="path50"
         style="fill:#d29908;fill-opacity:1;fill-rule:evenodd;stroke:none"
         d="m 3535.51,950.941 c 3.39,0 6.59,0.059 10.27,-0.25 3.35,-0.312 5.45,-2.293 5.46,-4.89 0.06,-10.992 0.47,-19.512 -0.33,-29.43 -0.84,-10.473 -3.41,-18.551 -7.51,-19.019 -11.43,-1.313 -26.41,-2.891 -35.52,-11.172 -2.94,-2.68 -4.01,-5.59 -5.28,-9.301 -2.96,-10.141 -3.56,-20.57 -3.82,-31.039 -0.01,-157.961 -0.03,-315.91 -0.03,-473.879 0,-10.531 3.79,-31.82 -11.39,-31.582 -23.01,-0.02 -22,-0.02 -45.02,0 -13.36,-0.117 -18.32,12.383 -21.58,20.25 13.93,0 27.86,-0.098 41.8,0 5.98,0.043 11.17,2.07 15.12,6.699 2.29,2.711 3.96,6.442 4.69,9.942 1.73,8.199 0.85,16.269 0.72,24.55 0,152.989 0.03,306 0.03,458.981 0,11.121 -1.88,39.629 6.08,48.168 5.97,4.781 14.15,6.133 21.51,7.34 3.67,0.589 7.41,0.941 11.06,1.64 2.89,0.571 6.05,3.422 7.63,5.879 1.39,2.133 2.35,4.141 3.11,6.602 2.02,6.429 2.91,13.75 3,20.511 z m -285.6,-251.953 c 0.01,-81.187 0.02,-162.359 0.03,-243.558 0.09,-3.078 0.18,-6.25 0.36,-9.43 -3.28,0.961 -6.44,2.27 -9.1,4.449 -2.44,2.442 -3.15,5.082 -4.1,8.34 -2.91,11.641 -2.82,23.711 -2.82,35.652 0,80.079 -0.03,160.168 -0.03,240.27 5.22,-11.91 10.44,-23.832 15.66,-35.723 z m 38.19,-295.117 c 2.15,-0.351 4.3,-0.699 6.46,-1.07 12.01,-3.031 12.65,-52.27 0,-52.762 -50.76,0 -101.52,0 -152.27,0 -6.61,0.301 -10.34,9.531 -11.21,20.262 46.36,0 92.73,0 139.09,0 4.61,0.758 7.53,1.988 10.63,5.66 2.14,2.5 3.68,5.801 4.66,8.93 1.92,6.129 2.61,12.578 2.64,18.98" /><path
         id="path52"
         style="fill:#d29908;fill-opacity:1;fill-rule:evenodd;stroke:none"
         d="m 3117.23,618.91 c -2.34,-57.32 -15.31,-114.609 -41.48,-165.801 -30.87,-60.371 -83.72,-118.789 -157.35,-112.269 -25.48,2.269 -48.05,12.019 -67.77,26.488 -2.86,2.031 -9.62,7.481 -13.28,10.863 9.84,-5.082 19.48,-9.461 30.18,-12.461 17.36,-4.91 35.61,-6.332 53.53,-4.07 22.62,2.86 43.46,11.762 62.18,24.59 16.53,11.352 31.12,25.961 43.54,41.641 24.63,31.078 42.45,67.371 54.5,105.058 10.55,32.992 16.61,67.539 19.36,102.031 3.24,40.532 2.36,81.59 -3.22,121.86 -4.18,30.269 -11.41,60.25 -22.09,88.91 -1.73,4.641 -3.63,9.18 -5.55,13.691 30,-52.601 44.81,-113.929 47.42,-174.531 0.94,-21.98 0.92,-44.031 0.03,-66 z m -192.95,284.84 c -23.58,-4.781 -30.86,-44.898 -33.9,-63.551 -5.99,-36.66 -7.66,-74.078 -8.78,-111.187 -1.9,-62.403 -1.9,-125.102 1.21,-187.461 1.46,-29.242 3.5,-58.621 9.13,-87.41 0.83,-4.231 1.76,-8.59 2.87,-12.922 -0.14,0.109 -0.29,0.25 -0.43,0.39 -9.42,9.903 -13.58,23.219 -16.63,36.25 -5.47,24.61 -7.92,49.743 -9.55,74.86 -3.77,60.703 -4.21,121.621 -2.89,182.422 0.9,38.847 2,77.789 6.83,116.39 2.1,15.879 4.43,31.828 9.4,47.129 3.11,8.82 7.24,18.981 15.57,24.102 2.4,1.168 4.24,1.597 6.9,1.718 1.31,-0.058 2.45,-0.218 3.72,-0.531 6.01,-2.027 9.56,-6.82 12.7,-12.07 1.45,-2.641 2.71,-5.348 3.85,-8.129" /><path
         id="path54"
         style="fill:#d29908;fill-opacity:1;fill-rule:evenodd;stroke:none"
         d="m 2664.65,950.941 h 5.26 c 13.32,0 10.42,-20.211 10.4,-25.941 -0.11,-32.57 0.18,-63.41 0.87,-94.211 0.7,-31.527 1.07,-59.219 1.05,-94.238 0,-5.449 -4.43,-7.422 -9.56,-7.422 -15.25,-0.02 -18.82,0 -33.77,0 -8.49,0 -8.89,9.742 -9.91,15.91 -0.24,1.449 -0.48,2.891 -0.73,4.34 3.92,0 7.83,0 11.75,0 3.56,0 7.13,-0.141 10.68,0.191 3.04,0.301 6.26,1.571 8.76,3.309 2.28,1.601 4.51,4.043 5.73,6.582 2.54,5.348 3.06,10.09 3.14,15.969 l -0.1,4.05 c -2.42,56.5 -3.69,113.02 -3.59,169.59 z m -88.63,-99.921 0.02,-406.11 c -3.05,0.371 -6.08,0.86 -9.09,1.539 -0.97,0.313 -2.77,0.762 -3.55,1.442 -2.63,6.449 -2.77,14.07 -2.99,20.961 l -0.06,415.507 c 6.39,-10.718 11.43,-21.82 15.67,-33.339 z m -64.69,-500.981 c -34.77,0 -69.53,0 -104.3,0 -4.23,-0.187 -6.8,9.223 -7.56,20.262 63.86,0 127.72,0 191.57,0 8.75,1.09 11.83,7.437 14.37,15.289 1.48,6.308 2.23,12.808 2.34,19.32 2.62,-0.219 5.25,-0.43 7.88,-0.691 10.69,-0.559 10.06,-54.649 0,-54.18 -34.77,0 -69.54,0 -104.3,0 z m -99.36,473.09 c -8.9,-24.879 -13.86,-51.43 -18.3,-78.09 -1.02,-6.168 -1.42,-15.91 -9.91,-15.91 -14.94,0 -18.53,-0.02 -33.77,0 -11.03,0.012 -11.65,10.391 -11.22,20.211 0,0.019 0,0.019 0,0.039 3.46,0 6.92,0 10.39,0 4.13,0 8.28,-0.098 12.4,0.191 3.26,0.809 5.22,1.629 8,3.52 4.84,4.609 6.69,9.922 7.76,16.48 0.42,2.782 0.87,5.551 1.34,8.34 6.27,36.699 14.04,74.09 33.31,106.43 v -61.211" /><path
         id="path56"
         style="fill:#d29908;fill-opacity:1;fill-rule:evenodd;stroke:none"
         d="m 2096.86,323.539 c -48.02,0.039 -105.14,28.461 -122.96,46.43 16.78,-9.59 31.83,-15.141 42.34,-18.168 21.82,-6.289 41.75,-8.16 64.39,-7.871 31.95,0.41 61.74,6.968 91.72,17.519 26.57,11.68 45.7,23.891 66.8,43.891 28.86,31.48 45.21,69.121 48.19,111.949 1.29,18.551 0.2,37.231 -3.12,55.531 -2.44,13.489 -5.98,26.809 -10.98,39.61 7.71,-12.879 14.43,-26.41 19.36,-41.41 12.75,-38.809 14.87,-80.961 4.04,-120.411 C 2270.55,362.621 2189.8,323.5 2096.86,323.539 Z m -21.25,256.91 c 10.4,-11.07 16.68,-25.371 16.68,-40.558 0,-21.782 -12.05,-43.891 -40.12,-59.981 -21.84,-12.519 -35.45,-33.5 -32.3,-55.101 -4.01,4.062 -7.87,9.941 -10.37,15.062 -8.06,16.5 -7.67,29.758 3.07,45.098 5.46,6.929 11.7,12.031 19.27,16.519 17.3,10.211 31.54,23.481 39.63,42.231 4.55,11.621 6.28,24.41 4.14,36.73 z M 2256,957.191 c 8.08,-0.66 14.51,-2.461 15.33,-5.761 1.44,-5.918 -1.51,-94.61 -0.91,-168.219 -0.21,-4.789 -0.32,-9.551 0.15,-14.34 0.01,-0.043 0.02,-0.062 0.02,-0.101 0.15,-10.211 0.4,-19.981 0.74,-29.02 0.25,-6.641 -0.8,-10.531 -10.01,-10.84 -20.88,-0.019 -22.53,-0.019 -43.41,0 -9.24,0.352 -10.43,6.969 -11.17,11.039 -0.54,2.891 -1.12,5.973 -1.76,9.211 9.76,0 19.51,0 29.28,0 8.31,0.488 12.01,0.82 18.1,6.738 2.89,5.321 3.05,7.723 3.3,13.832 -1.77,51.372 -0.87,102.829 -0.1,154.219 0.16,11.071 0.33,22.153 0.44,33.242 z m -135.73,-51.152 c -37.71,13.031 -71.35,-12.68 -61.28,-53.461 -9.71,13.301 -19.46,31.684 -17.16,48.652 1.36,10.059 8.25,20.981 17.49,25.61 9.9,4.941 22.14,3.5 32.32,0.121 11.39,-3.77 21.01,-11.859 28.63,-20.922" /><path
         id="path58"
         style="fill:#c4122e;fill-opacity:1;fill-rule:evenodd;stroke:none"
         d="m 878.359,156.898 c -2.347,-16.507 -8.847,-29.277 -19.461,-38.359 -10.609,-9.078 -24.308,-13.629 -41.109,-13.629 -20.098,0 -36.309,6.559 -48.641,19.68 -12.328,13.129 -18.488,30.39 -18.488,51.801 0,22.269 6.281,40.058 18.801,53.3 12.559,13.258 29.34,19.879 50.367,19.879 16.672,0 30.313,-4.39 40.852,-13.14 10.55,-8.77 16.57,-20.739 18.058,-35.961 h -33.027 c -1.633,6.601 -4.691,11.582 -9.211,14.89 -4.488,3.36 -10.422,5 -17.781,5 -9.809,0 -17.617,-3.89 -23.321,-11.66 -5.738,-7.777 -8.597,-18.398 -8.597,-31.918 0,-13.461 2.699,-23.902 8.121,-31.332 5.418,-7.418 13.027,-11.148 22.867,-11.148 7.91,0 14.25,1.949 19,5.801 4.77,3.867 7.742,9.468 8.922,16.796 h 32.648" /><path
         id="path60"
         style="fill:#c4122e;fill-opacity:1;fill-rule:evenodd;stroke:none"
         d="m 1105.4,108.719 v 137.48 h 65.79 c 17.42,0 30.27,-3.109 38.52,-9.34 8.25,-6.211 12.36,-15.859 12.36,-28.929 0,-7.711 -1.75,-14.328 -5.29,-19.801 -3.5,-5.527 -8.95,-10.141 -16.38,-13.867 6.03,-2.321 10.29,-5.453 12.78,-9.391 2.48,-3.973 3.91,-10.902 4.3,-20.883 0.19,-2.769 0.38,-6.558 0.58,-11.269 0.41,-11.09 2.32,-17.5 5.7,-19.258 v -4.742 h -36.89 c -1.79,4.84 -2.85,11.5 -3.1,19.98 -0.23,8.43 -0.48,13.77 -0.73,15.973 -0.57,5.328 -2.36,9.258 -5.42,11.738 -3.03,2.5 -7.61,3.731 -13.7,3.731 h -23.51 v -51.422 z m 35.01,78.609 h 26.22 c 7.08,0 12.3,1.313 15.61,3.902 3.35,2.622 5,6.801 5,12.5 0,5.059 -1.62,8.79 -4.84,11.25 -3.24,2.45 -8.19,3.7 -14.85,3.7 h -27.14 v -31.352" /><path
         id="path62"
         style="fill:#c4122e;fill-opacity:1;fill-rule:evenodd;stroke:none"
         d="m 1452.64,108.719 v 137.48 h 104.47 v -28.187 h -69.3 V 193.73 h 63.3 v -27.531 h -63.3 V 136.82 h 71.53 v -28.101 h -106.7" /><path
         id="path64"
         style="fill:#c4122e;fill-opacity:1;fill-rule:evenodd;stroke:none"
         d="m 1823.04,246.199 h 38.46 l 48.52,-137.48 h -37.79 l -8.41,25.211 h -45.91 l -7.87,-25.211 h -36.48 z m 3.25,-83.789 h 30.08 l -15.33,47.418 -14.75,-47.418" /><path
         id="path66"
         style="fill:#c4122e;fill-opacity:1;fill-rule:evenodd;stroke:none"
         d="m 2130.33,108.719 v 137.48 h 48.46 l 18.09,-66.898 c 1.64,-5.942 3.1,-11.66 4.41,-17.25 1.3,-5.563 2.44,-10.992 3.44,-16.262 1.17,5.602 2.52,11.461 4.01,17.57 1.49,6.161 3.21,12.719 5.13,19.75 l 17.08,63.09 h 48.36 v -137.48 h -32.12 v 60.953 c 0,4.297 0.1,10.328 0.32,18.066 0.22,7.75 0.55,16.703 0.99,26.832 l -26.41,-105.851 h -34.92 l -25.84,105.851 c 0.45,-12.199 0.76,-23.16 1.01,-32.929 0.26,-9.7 0.38,-17.321 0.38,-22.813 v -50.109 h -32.39" /><path
         id="path68"
         style="fill:#c4122e;fill-opacity:1;fill-rule:evenodd;stroke:none"
         d="m 2513.32,108.719 v 137.48 h 104.47 V 218.012 H 2548.5 V 193.73 h 63.3 v -27.531 h -63.3 V 136.82 h 71.52 v -28.101 h -106.7" /><path
         id="path70"
         style="fill:#c4122e;fill-opacity:1;fill-rule:evenodd;stroke:none"
         d="m 2847.6,108.719 v 137.48 h 65.79 c 17.42,0 30.26,-3.109 38.51,-9.34 8.27,-6.211 12.37,-15.859 12.37,-28.929 0,-7.711 -1.75,-14.328 -5.3,-19.801 -3.49,-5.527 -8.94,-10.141 -16.37,-13.867 6.02,-2.321 10.29,-5.453 12.78,-9.391 2.48,-3.973 3.92,-10.902 4.3,-20.883 0.19,-2.769 0.38,-6.558 0.57,-11.269 0.41,-11.09 2.33,-17.5 5.71,-19.258 v -4.742 h -36.9 c -1.78,4.84 -2.84,11.5 -3.08,19.98 -0.24,8.43 -0.49,13.77 -0.74,15.973 -0.57,5.328 -2.36,9.258 -5.42,11.738 -3.02,2.5 -7.61,3.731 -13.7,3.731 h -23.51 v -51.422 z m 35.01,78.609 h 26.22 c 7.08,0 12.3,1.313 15.61,3.902 3.34,2.622 5,6.801 5,12.5 0,5.059 -1.62,8.79 -4.84,11.25 -3.25,2.45 -8.18,3.7 -14.84,3.7 h -27.15 v -31.352" /><path
         id="path72"
         style="fill:#c4122e;fill-opacity:1;fill-rule:evenodd;stroke:none"
         d="m 3226.95,108.719 v 51.812 l -47.51,85.668 h 39.49 l 25.29,-55.429 25.2,55.429 h 39.76 l -47.98,-85.668 v -51.812 h -34.25" /><path
         id="path74"
         style="fill:#d29908;fill-opacity:1;fill-rule:evenodd;stroke:none"
         d="m 3389.61,43.2109 c 73.82,0 134.03,60.2111 134.03,134.0191 0,73.829 -60.21,134.04 -134.03,134.04 H 670.238 c -73.828,0 -134.039,-60.211 -134.039,-134.04 0,-73.808 60.211,-134.0191 134.039,-134.0191 z m 0,15.211 c 65.44,0 118.82,53.3791 118.82,118.8081 0,65.45 -53.38,118.829 -118.82,118.829 H 670.238 c -65.449,0 -118.828,-53.379 -118.828,-118.829 0,-65.429 53.379,-118.8081 118.828,-118.8081 H 3389.61" /><path
         id="path76"
         style="fill:#c4122e;fill-opacity:1;fill-rule:evenodd;stroke:none"
         d="m 3781,579.051 c 0.01,-88.602 0.02,-177.153 0.03,-265.731 0.32,-9.679 -0.19,-21.949 10.23,-26.07 67.95,-18.691 138.87,75.488 154.44,127.809 3.37,11.761 5.62,18.3 8.74,30.16 1.04,4.609 2.7,14.429 16.36,13.359 19.98,0.024 14.66,0.024 34.64,0 11.93,0.063 11.2,-12.558 11.11,-18.828 -1.06,-74.121 -2.84,-103.57 -3.9,-177.699 -1.18,-30.93 3.83,-40.25 -30.26,-40.25 -131.36,0 -262.73,0 -394.1,0 -15.18,-0.332 -12.02,60.758 0,61.699 11,1.578 26.82,2.172 35.63,9.488 6.71,6.332 6.89,19.692 7.01,28.192 -0.02,187.648 -0.04,375.332 -0.05,562.98 -0.92,25.02 -17.6,38.461 -42.59,41.352 -10.12,-1.032 -12.66,53.668 0,55.199 h 400.98 c 13.55,-0.84 17.61,-8.66 17.89,-21.531 1.06,-74.121 2.15,-97.418 3.2,-171.539 0.1,-6.27 0.82,-18.891 -11.1,-18.852 -19.99,0 -14.67,0 -34.64,0 -13.66,-1.07 -15.95,9.262 -16.97,13.871 -10.77,48.18 -45.02,107.68 -93.08,127.731 -17.08,6.019 -43.1,9.109 -61.07,6.121 -15.8,-3.282 -12.41,-23.153 -12.5,-36.153 0,-75.98 0,-152 0,-227.968 38.4,12.109 62.67,35.539 71.35,81.308 0.99,6.25 2,12.5 2.99,18.75 0.45,2.852 1.54,8.223 17.17,8.531 11.48,0 21.7,0 33.82,0 12.01,-0.699 11.38,-10.23 11.38,-15.371 0,-45.531 0,-89.339 0,-130.82 0,-41.5 0,-83.437 0,-128.969 0,-5.109 0.63,-14.66 -11.38,-15.351 -12.12,0 -22.34,0 -33.82,0 -15.63,0.301 -16.72,5.672 -17.17,8.519 -0.99,6.25 -2,12.5 -2.99,18.75 -8.68,45.762 -32.95,69.223 -71.35,81.313" /><path
         id="path78"
         style="fill:#c4122e;fill-opacity:1;fill-rule:evenodd;stroke:none"
         d="m 3224.74,780.059 c 0.01,-98.278 0.02,-196.559 0.04,-294.84 0.31,-11.68 0.82,-24.239 5.25,-35.239 2.63,-5.5 6.19,-8.339 11.69,-10.968 8.8,-3.731 18.26,-4.793 27.67,-6.453 12.02,-3.02 12.65,-52.258 0,-52.75 -50.76,0 -101.52,0 -152.28,0 -15.19,0.679 -15.19,48.851 0,53.32 10.88,1.781 24.39,2.562 33.54,9.75 2.84,2.551 4.06,4.762 5.43,8.281 4.06,12.281 4.38,25.699 4.49,38.488 -0.05,138.422 -0.09,276.84 -0.12,415.282 -0.34,3.75 -0.72,11.05 -4.31,13.492 -2.26,1.328 -4.67,2.129 -7.19,2.887 -11.03,2.929 -22.5,3.73 -33.83,4.98 -13.29,1.063 -15.19,53.383 0,54.422 50.36,0 86.17,0 136.53,0 20.77,0 29,-10.039 35.43,-24.77 L 3409.4,675.898 c -0.02,66.602 -0.02,133.211 -0.03,199.813 -0.27,11.168 -0.77,22.75 -4.3,33.469 -2.17,5.59 -4.64,8.031 -9.91,10.879 -9.18,4.32 -19.34,5.351 -29.22,7.113 -10.76,0.117 -13.29,53.418 0,53.539 50.76,0 101.52,0 152.29,0 10.74,-0.762 10.12,-54.082 0,-53.602 -11.34,-1.968 -26.28,-3.019 -35.52,-11.148 -2.81,-2.813 -4.01,-5.602 -5.28,-9.32 -2.96,-10.11 -3.56,-20.563 -3.82,-31.032 -0.01,-157.968 -0.03,-315.918 -0.04,-473.89 0,-10.52 3.79,-31.809 -11.38,-31.578 -23.02,0 -22,0 -45.01,0 -14.67,-0.121 -19.21,14.937 -22.48,22.418 -56.66,129.16 -113.31,258.339 -169.96,387.5" /><path
         id="path80"
         style="fill:#c4122e;fill-opacity:1;fill-rule:evenodd;stroke:none"
         d="m 2904.06,933.988 c -27.54,0.231 -35.6,-44.117 -38.85,-64.019 -5.98,-36.668 -7.65,-74.071 -8.78,-111.199 -1.9,-62.399 -1.9,-125.09 1.22,-187.461 1.45,-29.239 3.48,-58.61 9.13,-87.399 3.36,-17.211 8.33,-36.269 20.94,-49.101 10.06,-10.239 25.93,-8.438 34.78,2.3 12.59,15.282 17.03,35.821 20.21,54.961 6.41,38.481 8.04,77.821 9.1,116.739 1.7,62.421 1.53,125.101 -1.83,187.441 -1.55,28.699 -3.61,57.559 -9.53,85.711 -3.77,17.91 -12.57,51.828 -36.39,52.027 z m 188.92,-253.789 c -0.21,-67.519 -11.43,-136.719 -42.4,-197.308 -30.87,-60.391 -83.71,-118.782 -157.36,-112.282 -85.2,7.582 -137.9,98.692 -159.9,171.93 -21.38,71.18 -23.86,150.391 -11.96,223.34 11.03,67.801 40.04,141.101 92.02,187.82 51.82,46.561 125.57,47.931 178.23,2.461 20.75,-17.91 37.59,-40.57 51.4,-64.16 36.94,-63.191 50.18,-139.422 49.97,-211.801" /><path
         id="path82"
         style="fill:#c4122e;fill-opacity:1;fill-rule:evenodd;stroke:none"
         d="m 2486.15,379.809 c -34.76,0 -69.53,0 -104.28,0 -10.07,-0.45 -10.7,53.613 0,54.179 8.74,0.864 17.51,1.274 26.04,3.282 3.95,1.308 7.54,2.46 9.51,6.289 3.53,8.05 3.79,18.011 4.03,26.621 l 0.03,443.179 c -34.49,-38.98 -44.67,-88.589 -52.98,-138.531 -1.02,-6.168 -1.42,-15.937 -9.91,-15.937 -14.94,0 -18.53,-0.02 -33.77,0.019 -11.03,0.02 -11.65,10.391 -11.23,20.219 2.57,59.883 3.81,114.723 3.58,175.66 -0.02,5.699 -2.91,25.922 10.41,25.922 h 317.16 c 13.32,0 10.43,-20.223 10.41,-25.922 -0.24,-60.937 1,-115.777 3.57,-175.66 0.43,-9.828 -0.19,-20.199 -11.22,-20.219 -15.24,-0.039 -18.83,-0.019 -33.77,-0.019 -8.5,0 -8.89,9.769 -9.91,15.937 -8.31,49.942 -18.49,99.551 -52.98,138.531 l 0.03,-443.179 c 0.23,-8.61 0.5,-18.571 4.03,-26.621 1.96,-3.829 5.57,-4.981 9.51,-6.289 8.53,-2.008 17.31,-2.418 26.04,-3.282 10.69,-0.566 10.08,-54.629 0,-54.179 -34.76,0 -69.52,0 -104.3,0" /><path
         id="path84"
         style="fill:#c4122e;fill-opacity:1;fill-rule:evenodd;stroke:none"
         d="m 2071.69,353.32 c -98.22,0.039 -176.55,76.25 -176.55,157.782 0,50.168 38.34,118.078 100.5,120.988 39.31,1.82 71.47,-28.039 71.47,-62.418 0,-21.793 -12.04,-43.902 -40.11,-60 -23.7,-13.594 -37.72,-37.152 -31.12,-60.621 21.43,-76.27 136.25,-72.641 176.68,2.437 26.64,49.473 -24.75,101.481 -59.1,135.41 -35.22,34.782 -74.67,66.5 -109.96,100.922 -23.88,23.692 -42.6,46.231 -56.62,75.86 -20.11,44.41 -23.53,94.019 -5.39,139.511 20.56,46.618 61.1,84.18 117.59,91.739 33.75,3.711 57.62,-4.34 87.93,-16.489 6.41,-2.48 14.28,-6.031 21.17,-6.953 13.34,0.512 19.48,0.602 25.14,9.711 2.34,6.582 50.49,9.473 52.83,0 1.76,-7.148 -2.91,-135.488 0.01,-211.679 0.26,-6.641 -0.8,-10.532 -10.01,-10.84 -20.88,0 -22.54,0 -43.42,0 -9.23,0.371 -10.42,6.968 -11.17,11.031 -8.83,47.949 -31.36,146.078 -85.39,165.719 -15.74,5.75 -34.37,5.84 -45.8,-3.059 -32.69,-25.473 -15.53,-64.34 3.69,-89.18 23.32,-29.05 50.88,-55.043 79.38,-79.89 25.02,-21.973 49.84,-43.301 72.8,-67.242 27.47,-29.219 48.39,-58.297 61.18,-95.258 12.52,-38.903 14.88,-80.949 4.06,-120.422 C 2245.37,392.391 2164.63,353.27 2071.69,353.32" /><path
         id="path86"
         style="fill:#d29908;fill-opacity:1;fill-rule:nonzero;stroke:none"
         d="m 4120.81,94.4609 c 0,-1.082 0,-4.3593 0,-9.8515 3.95,0 6.34,0 7.16,0 1.89,-0.0586 3.45,0.2304 4.65,0.8789 1.1,0.6914 1.66,2.0898 1.66,4.2109 -0.07,2.0899 -0.81,3.4297 -2.24,4.0196 -1.48,0.4921 -3.22,0.7421 -5.21,0.7421 -0.73,0 -2.74,0 -6.02,0 z m -8.41,6.8671 h 14.37 c 11.02,0.203 16.54,-3.8866 16.54,-12.2694 -0.13,-6.7305 -3.3,-10.25 -9.51,-10.5781 l 10.07,-17.7696 h -9.99 l -9.09,17.0274 h -3.98 V 60.7109 h -8.41 z m 14.52,8.621 c -7.89,-0.07 -14.2,-2.84 -18.93,-8.301 -4.83,-5.3863 -7.28,-12.2769 -7.34,-20.6597 0.06,-8.1797 2.48,-15.0078 7.23,-20.4688 4.73,-5.6484 11.35,-8.5078 19.85,-8.5703 5.74,-0.0078 11.32,2.4024 16.74,7.1992 5.48,4.7813 8.33,12.0899 8.56,21.9414 -0.07,8.25 -2.46,15.0704 -7.18,20.4692 -4.79,5.461 -11.09,8.25 -18.93,8.39 z m 0,8.731 c 10.79,-0.071 19.56,-3.532 26.34,-10.379 6.78,-6.871 10.24,-15.9494 10.36,-27.2619 -0.12,-11.4493 -3.61,-20.5274 -10.46,-27.2578 -6.77,-6.9219 -15.53,-10.4532 -26.26,-10.5704 -10.9,0.1289 -19.72,3.7188 -26.44,10.7696 -6.78,6.9179 -10.25,15.9179 -10.4,26.9609 0.15,11.3789 3.69,20.4886 10.59,27.3596 6.72,6.847 15.48,10.308 26.27,10.379" /></g></g></svg>