<?xml version="1.0" standalone="no"?>
<!DOCTYPE svg PUBLIC "-//W3C//DTD SVG 20010904//EN"
 "http://www.w3.org/TR/2001/REC-SVG-20010904/DTD/svg10.dtd">
<svg version="1.0" xmlns="http://www.w3.org/2000/svg"
 width="1000.000000pt" height="329.000000pt" viewBox="0 0 1000.000000 329.000000"
 preserveAspectRatio="xMidYMid meet">
<metadata>
Created by potrace 1.15, written by Peter Selinger 2001-2017
</metadata>
<g transform="translate(0.000000,329.000000) scale(0.100000,-0.100000)"
fill="#000000" stroke="none">
<path d="M560 2851 c2 -169 1 -180 -19 -200 -12 -12 -21 -30 -21 -41 0 -11
-11 -27 -24 -35 -30 -20 -62 -7 -76 31 -8 20 -15 23 -34 18 -13 -3 -27 -1 -30
5 -10 15 -48 14 -71 -3 -30 -22 -36 -77 -11 -105 11 -12 12 -21 4 -35 -6 -10
-7 -36 -4 -60 4 -22 8 -63 10 -91 1 -27 10 -77 19 -110 9 -32 14 -67 11 -77
-7 -23 10 -23 151 1 118 21 176 34 325 74 58 16 150 30 235 37 186 15 324 37
393 64 69 27 118 21 195 -23 29 -16 79 -34 112 -41 33 -7 98 -25 146 -41 86
-28 235 -51 422 -65 l97 -7 0 442 0 441 -915 0 -916 0 1 -179z m1118 -416 c70
-8 224 -19 342 -25 168 -8 228 -14 275 -30 53 -18 45 -20 -17 -5 -23 6 -23 5
-20 -90 l3 -95 42 -2 42 -1 -39 -4 c-71 -8 -346 27 -421 52 -38 13 -104 31
-145 41 -41 9 -95 27 -120 41 -25 14 -71 29 -103 33 -49 7 -66 5 -105 -11 -57
-25 -178 -44 -377 -59 -112 -9 -188 -22 -300 -50 -83 -21 -175 -41 -205 -44
l-55 -5 52 10 51 10 4 62 3 62 -60 -1 -60 -2 55 7 c30 4 81 19 113 35 89 43
239 66 446 67 97 1 201 4 231 9 93 12 235 11 368 -5z"/>
<path d="M2440 1590 l0 -1440 70 0 70 0 0 1440 0 1440 -70 0 -70 0 0 -1440z"/>
<path d="M2962 2903 c-23 -49 -84 -199 -136 -335 -52 -135 -100 -256 -106
-268 -6 -12 -25 -26 -41 -32 -16 -5 -29 -16 -29 -24 0 -11 22 -14 111 -14 120
0 139 12 61 38 -23 7 -42 19 -41 25 0 7 17 55 37 107 l38 95 133 0 134 0 38
-100 c22 -55 38 -104 36 -109 -2 -5 -21 -14 -42 -20 -21 -6 -40 -17 -43 -24
-3 -9 29 -12 132 -12 113 0 136 2 136 15 0 8 -11 17 -24 21 -14 3 -31 13 -39
22 -8 10 -72 166 -142 347 -70 182 -130 336 -132 343 -3 6 -13 12 -22 12 -12
0 -30 -27 -59 -87z m84 -210 c30 -76 54 -139 54 -140 0 -2 -49 -3 -110 -3 -60
0 -110 3 -110 8 -1 15 104 282 108 277 3 -2 29 -67 58 -142z"/>
<path d="M3485 2760 c-89 -17 -101 -32 -45 -59 l35 -16 3 -201 2 -201 -25 -11
c-14 -7 -32 -12 -40 -12 -8 0 -15 -7 -15 -15 0 -13 22 -15 141 -15 105 0 140
3 137 12 -3 7 -20 16 -39 21 -59 15 -59 15 -59 197 l0 169 37 30 c64 52 145
50 159 -4 4 -18 13 -25 30 -25 23 0 24 3 24 65 0 61 -2 66 -26 75 -37 14 -91
12 -123 -5 -16 -8 -47 -35 -69 -61 l-41 -46 -3 59 -3 59 -80 -16z"/>
<path d="M4908 2765 c-102 -38 -159 -123 -166 -245 -9 -153 53 -260 167 -294
68 -20 104 -20 167 -1 136 40 211 196 170 355 -33 129 -105 191 -230 196 -45
3 -85 -1 -108 -11z m161 -54 c46 -33 74 -103 79 -197 9 -162 -46 -254 -150
-254 -46 0 -55 4 -88 39 -46 48 -65 112 -64 216 2 115 33 181 99 211 38 18 87
11 124 -15z"/>
<path d="M5600 2764 c-19 -8 -50 -29 -67 -46 l-33 -32 0 42 c0 48 -4 50 -105
29 -69 -15 -77 -31 -25 -56 l35 -16 3 -201 2 -201 -25 -11 c-14 -7 -32 -12
-40 -12 -8 0 -15 -7 -15 -15 0 -13 21 -15 125 -15 133 0 157 10 92 40 l-32 15
0 189 0 189 27 20 c18 13 48 22 85 25 48 3 63 0 85 -17 39 -31 48 -77 48 -247
0 -162 -1 -166 -53 -179 -15 -4 -27 -13 -27 -21 0 -11 25 -14 125 -14 101 0
125 3 125 14 0 8 -14 17 -30 21 -17 4 -35 15 -40 25 -6 10 -10 97 -10 195 0
158 -2 180 -21 216 -35 70 -144 100 -229 63z"/>
<path d="M6127 2770 c-21 -6 -51 -17 -66 -25 -27 -13 -29 -18 -24 -57 7 -52 9
-56 31 -40 70 49 110 66 161 70 75 5 92 -12 99 -106 l5 -70 -94 -4 c-108 -5
-156 -24 -207 -83 -27 -30 -32 -43 -32 -89 0 -96 58 -151 156 -149 57 2 104
21 147 61 25 24 27 24 27 6 0 -31 27 -61 60 -68 43 -8 130 29 130 55 0 17 -5
18 -38 13 -26 -4 -42 -2 -49 8 -8 9 -13 80 -15 200 -3 207 -7 221 -78 262 -37
22 -153 31 -213 16z m195 -352 c-5 -91 -11 -105 -59 -125 -85 -35 -163 6 -163
86 0 73 68 120 176 121 l51 0 -5 -82z"/>
<path d="M3980 2759 c-25 -5 -55 -12 -67 -15 -32 -6 -29 -30 5 -39 61 -15 62
-20 62 -225 0 -204 0 -205 -58 -216 -18 -4 -32 -13 -32 -20 0 -11 27 -14 135
-14 108 0 135 3 135 14 0 7 -14 16 -32 20 -59 12 -58 7 -58 267 l0 239 -22 -1
c-13 -1 -43 -5 -68 -10z"/>
<path d="M4240 2695 c0 -66 2 -75 18 -75 12 0 25 16 39 50 l21 50 111 0 112 0
-39 -52 c-110 -152 -282 -408 -282 -422 0 -14 26 -16 220 -16 l220 0 0 81 c0
71 -2 80 -17 77 -11 -2 -24 -21 -33 -51 -9 -26 -22 -52 -30 -57 -16 -10 -240
-14 -240 -4 0 3 13 23 28 43 69 89 292 421 292 435 0 14 -26 16 -210 16 l-210
0 0 -75z"/>
<path d="M1445 2160 c-38 -23 -283 -45 -405 -35 -79 6 -91 4 -165 -24 -44 -16
-108 -37 -143 -46 -76 -19 -364 -65 -409 -65 -18 0 -33 -2 -33 -5 0 -3 16 -29
36 -57 19 -29 38 -65 41 -80 3 -16 10 -31 14 -34 5 -3 9 -16 9 -29 0 -17 13
-34 44 -57 25 -18 50 -43 57 -55 10 -19 7 -25 -26 -55 -21 -18 -51 -41 -67
-50 -31 -20 -38 -48 -10 -48 40 0 242 30 302 44 102 24 211 64 251 91 50 36
110 44 194 28 89 -17 194 -20 317 -9 109 10 103 12 234 -85 83 -61 209 -123
364 -177 104 -37 126 -41 228 -44 l112 -3 0 303 0 302 -77 0 c-204 0 -548 85
-694 171 -74 44 -124 50 -174 19z"/>
<path d="M475 2134 c-178 -22 -178 -22 -182 -71 -2 -23 1 -44 6 -48 10 -5 310
52 320 61 2 2 -5 4 -17 4 -31 0 -31 47 1 60 20 8 20 9 2 8 -11 0 -69 -7 -130
-14z"/>
<path d="M7001 2036 c-35 -6 -66 -16 -68 -22 -2 -6 15 -19 37 -29 22 -10 41
-18 42 -19 1 -1 5 -158 8 -350 l5 -350 55 -19 c67 -23 189 -27 244 -8 55 19
120 82 146 142 44 104 35 244 -23 329 -64 96 -207 108 -304 26 l-33 -28 0 171
0 171 -22 -1 c-13 -1 -52 -7 -87 -13z m314 -335 c16 -9 41 -39 55 -66 21 -42
25 -63 25 -135 0 -72 -4 -93 -26 -135 -36 -71 -79 -98 -147 -93 -32 3 -64 13
-80 25 l-27 20 -3 175 c-3 196 -3 196 75 224 42 15 83 10 128 -15z"/>
<path d="M7958 2037 c-78 -12 -88 -28 -31 -52 21 -9 41 -21 45 -28 4 -7 8
-155 8 -329 0 -347 1 -340 -60 -353 -16 -4 -30 -13 -30 -21 0 -11 25 -14 135
-14 111 0 135 3 135 15 0 8 -14 17 -35 21 -20 3 -40 15 -45 25 -6 10 -10 165
-10 383 l0 366 -22 -2 c-13 0 -53 -6 -90 -11z"/>
<path d="M2865 1977 c-84 -41 -125 -104 -125 -192 0 -106 50 -157 207 -209 63
-21 123 -48 142 -64 58 -48 59 -139 2 -195 -27 -28 -39 -32 -99 -35 -54 -3
-79 0 -120 18 -62 27 -75 41 -97 108 -12 39 -21 52 -36 52 -18 0 -20 -6 -17
-97 l3 -97 90 -24 c145 -38 278 -18 354 51 60 55 79 172 41 247 -27 53 -75 83
-196 124 -127 42 -141 50 -164 89 -63 103 23 212 153 193 72 -11 109 -42 131
-109 14 -43 23 -57 37 -57 17 0 19 9 19 95 l0 94 -37 11 c-21 7 -83 14 -138
16 -91 5 -105 3 -150 -19z"/>
<path d="M4553 1923 c-17 -3 -23 -14 -28 -56 -10 -69 -19 -85 -58 -95 -17 -5
-33 -16 -35 -25 -3 -14 4 -17 37 -17 l41 0 0 -205 c0 -232 6 -256 65 -281 65
-27 192 -5 219 38 15 25 4 30 -43 19 -26 -6 -55 -6 -76 0 -64 18 -65 20 -65
235 l0 194 89 0 c89 0 101 5 101 41 0 5 -43 9 -95 9 l-95 0 0 75 c0 80 1 79
-57 68z"/>
<path d="M8650 1921 c-22 -6 -25 -13 -28 -56 -4 -57 -28 -90 -73 -99 -49 -9
-37 -36 16 -36 l45 0 0 -213 c0 -232 2 -242 60 -272 63 -33 220 1 220 47 0 17
-4 19 -32 12 -48 -12 -96 -8 -124 11 l-24 15 0 200 0 200 90 0 c89 0 90 0 90
25 0 25 -1 25 -90 25 l-90 0 0 75 c0 81 -1 82 -60 66z"/>
<path d="M3378 1772 c-88 -17 -97 -31 -40 -59 l37 -18 5 -180 c4 -156 8 -184
25 -214 28 -48 77 -71 150 -71 51 0 69 5 108 30 26 16 47 34 47 40 0 5 5 10
10 10 6 0 10 -18 10 -40 0 -22 4 -40 10 -40 35 0 160 35 160 45 0 7 -18 19
-40 28 l-40 15 0 236 0 236 -22 -5 c-13 -3 -52 -11 -88 -18 -74 -15 -83 -31
-30 -56 l35 -16 3 -176 2 -176 -27 -19 c-35 -23 -136 -31 -168 -14 -40 22 -45
50 -45 270 0 162 -3 210 -12 209 -7 -1 -48 -8 -90 -17z"/>
<path d="M4085 1772 c-86 -40 -121 -117 -90 -197 21 -58 51 -77 160 -109 98
-29 135 -55 135 -97 0 -41 -9 -58 -41 -74 -80 -42 -208 1 -224 76 -5 22 -12
29 -31 29 -23 0 -24 -3 -24 -70 l0 -69 58 -17 c121 -36 253 -16 306 47 59 70
56 166 -5 210 -17 12 -71 34 -121 50 -108 33 -138 57 -138 110 0 103 183 110
224 8 11 -27 22 -39 36 -39 18 0 20 7 20 69 0 83 2 82 -130 88 -79 3 -102 1
-135 -15z"/>
<path d="M4965 1777 c-77 -26 -82 -31 -75 -79 3 -24 10 -42 15 -41 6 1 36 17
68 36 69 42 117 53 154 35 38 -18 53 -53 53 -121 l0 -59 -49 7 c-57 8 -156
-14 -207 -46 -68 -42 -95 -139 -59 -210 46 -87 202 -94 288 -12 26 26 27 26
27 5 0 -58 91 -83 158 -42 45 27 44 54 -2 46 -62 -12 -66 1 -66 203 0 168 -1
180 -22 211 -41 60 -69 73 -160 77 -50 2 -99 -2 -123 -10z m213 -344 c3 -77 2
-82 -24 -102 -32 -26 -99 -44 -129 -37 -43 11 -67 40 -72 86 -8 75 34 113 142
130 82 13 80 15 83 -77z"/>
<path d="M5496 1770 c-49 -8 -91 -20 -93 -26 -2 -6 16 -19 39 -30 l43 -19 3
-202 2 -203 -45 -11 c-26 -7 -45 -17 -45 -25 0 -11 28 -14 140 -14 116 0 140
3 140 15 0 8 -14 17 -35 21 -19 3 -39 12 -44 18 -7 8 -12 109 -13 252 l-3 240
-89 -16z"/>
<path d="M5813 1772 c-89 -16 -104 -31 -52 -52 59 -25 59 -25 59 -225 0 -201
-2 -207 -60 -220 -16 -4 -30 -13 -30 -21 0 -11 24 -14 130 -14 106 0 130 3
130 14 0 8 -13 17 -29 21 -16 3 -35 12 -41 19 -7 9 -10 75 -8 197 l3 183 34
23 c25 17 48 23 88 23 110 0 123 -26 123 -253 0 -176 -1 -179 -53 -192 -15 -4
-27 -13 -27 -21 0 -11 25 -14 125 -14 97 0 125 3 125 13 0 7 -15 20 -32 28
l-33 14 -5 190 c-4 166 -7 194 -25 224 -29 49 -67 73 -124 79 -75 7 -118 -5
-162 -45 l-39 -35 0 41 c0 22 -3 41 -7 40 -5 -1 -45 -8 -90 -17z"/>
<path d="M6540 1784 c-100 -33 -100 -33 -100 -79 0 -24 4 -46 9 -49 5 -3 32
10 61 29 67 45 120 60 164 45 41 -13 56 -44 56 -119 l0 -57 -77 0 c-184 0
-298 -121 -237 -250 43 -91 198 -101 286 -18 l26 26 7 -31 c8 -37 30 -51 80
-51 44 0 115 35 115 56 0 14 -7 15 -39 10 -68 -11 -71 -1 -71 202 0 206 -7
231 -80 269 -34 18 -59 23 -114 22 -39 0 -78 -3 -86 -5z m188 -351 c-3 -87 -3
-87 -37 -110 -96 -65 -204 -16 -188 84 12 71 59 96 215 112 10 1 12 -20 10
-86z"/>
<path d="M8308 1769 c-83 -15 -115 -27 -93 -35 6 -2 26 -12 45 -22 l35 -17 3
-202 2 -203 -45 -11 c-26 -7 -45 -17 -45 -25 0 -11 28 -14 140 -14 116 0 140
3 140 15 0 8 -14 17 -35 21 -19 3 -39 12 -44 18 -7 8 -12 109 -13 252 l-3 239
-87 -16z"/>
<path d="M7635 1766 c-67 -13 -79 -33 -30 -49 56 -18 55 -15 55 -222 0 -209 0
-207 -57 -220 -19 -4 -33 -13 -33 -21 0 -11 25 -14 135 -14 112 0 135 3 135
15 0 8 -16 19 -40 25 l-40 11 0 244 0 245 -32 -1 c-18 -1 -60 -7 -93 -13z"/>
<path d="M8910 1765 c0 -8 15 -21 33 -28 30 -13 39 -30 121 -223 49 -115 98
-223 108 -241 l19 -32 -34 -75 c-20 -43 -44 -79 -57 -86 -22 -12 -67 -10 -131
6 -26 6 -27 4 -31 -40 -3 -46 -3 -47 32 -56 93 -26 167 5 210 90 10 19 61 154
115 300 131 357 121 334 160 353 19 9 35 23 35 32 0 12 -17 15 -100 15 -84 0
-100 -3 -100 -16 0 -8 16 -22 36 -30 20 -8 34 -20 32 -27 -64 -181 -122 -337
-127 -337 -4 0 -114 257 -149 351 -2 4 15 13 37 19 24 6 41 17 41 25 0 12 -22
15 -125 15 -104 0 -125 -3 -125 -15z"/>
<path d="M925 1535 c-164 -81 -316 -115 -512 -115 l-83 0 0 -30 c0 -19 6 -33
17 -37 9 -4 84 -1 167 7 167 14 353 59 454 108 l57 28 125 -9 c69 -5 150 -8
181 -8 31 1 95 -3 144 -9 76 -9 95 -16 146 -50 32 -22 60 -40 62 -40 3 0 72
-36 154 -79 81 -44 168 -87 193 -97 25 -10 76 -37 115 -61 62 -39 76 -43 132
-43 34 0 73 4 87 10 23 8 26 15 26 55 l0 45 -98 0 c-91 0 -106 3 -203 41 -137
53 -385 182 -429 223 -82 77 -136 92 -265 76 -54 -7 -97 -5 -192 11 -68 10
-137 19 -155 18 -18 0 -73 -20 -123 -44z"/>
<path d="M870 1344 l-155 -46 -202 -2 c-129 -1 -202 -5 -201 -11 3 -13 -50
-95 -61 -95 -13 0 -20 -49 -8 -57 5 -3 7 -28 4 -58 -6 -57 3 -75 38 -75 12 0
29 -8 38 -18 21 -23 22 -85 3 -102 -8 -6 -16 -21 -18 -33 -3 -18 -9 -22 -38
-19 -31 2 -37 -2 -52 -30 -9 -18 -19 -41 -22 -50 -6 -19 -15 -15 459 -192 154
-57 461 -172 683 -255 l402 -151 325 0 325 0 0 435 c0 239 -1 435 -3 435 -1 0
-26 -9 -55 -20 -29 -11 -64 -20 -79 -20 -27 0 -129 59 -198 116 -34 27 -204
115 -440 228 -75 35 -219 56 -435 61 l-155 4 -155 -45z m537 -375 c102 -26
359 -117 478 -169 28 -12 108 -36 179 -54 108 -28 124 -34 97 -39 -44 -9 -206
36 -441 123 -302 111 -408 139 -543 140 -126 2 -280 -21 -337 -50 -67 -34
-157 -52 -197 -39 -19 6 -33 13 -30 15 2 2 18 -1 34 -7 39 -13 116 8 182 50
34 22 73 34 150 48 144 26 282 20 428 -18z m-22 -199 c77 -26 226 -82 330
-123 275 -110 334 -127 470 -142 116 -12 118 -13 46 -14 -41 0 -71 -4 -67 -8
4 -4 48 -7 99 -6 l92 0 -75 -7 c-155 -16 -254 8 -566 135 -101 42 -217 86
-257 99 -39 14 -112 40 -162 60 -84 33 -98 35 -200 35 -82 1 -148 -7 -260 -29
-141 -28 -164 -30 -370 -29 -269 2 -237 17 50 24 163 4 210 9 325 34 125 28
145 30 270 24 128 -5 143 -8 275 -53z"/>
<path d="M3448 1048 c-65 -11 -75 -29 -27 -48 61 -26 59 -13 59 -360 0 -265
-2 -321 -15 -333 -23 -23 -80 -30 -118 -13 -38 15 -18 -30 -226 506 -60 154
-84 206 -98 208 -28 4 -67 -78 -193 -405 -108 -279 -114 -293 -146 -308 -19
-9 -34 -22 -34 -30 0 -12 20 -15 110 -15 90 0 110 3 110 15 0 8 -17 19 -42 26
-24 7 -45 14 -47 15 -2 2 13 51 34 109 l38 106 136 -3 135 -3 38 -95 c20 -52
37 -100 37 -106 1 -7 -19 -17 -44 -23 -28 -7 -45 -17 -45 -26 0 -13 38 -15
275 -15 235 0 275 2 275 15 0 8 -16 19 -39 25 -21 5 -42 17 -45 26 -3 9 -6
180 -6 380 l0 364 -32 -1 c-18 -1 -59 -6 -90 -11z m-405 -323 l54 -140 -105
-3 c-57 -1 -106 -1 -109 1 -2 2 20 68 49 145 29 78 53 140 55 139 1 -2 26 -65
56 -142z"/>
<path d="M3766 1046 c-33 -6 -61 -16 -63 -22 -2 -6 17 -19 42 -28 l45 -18 -2
-335 c-3 -365 0 -345 -60 -358 -16 -3 -28 -12 -28 -20 0 -13 23 -15 136 -15
120 0 135 2 132 16 -2 9 -19 22 -38 28 l-35 11 -3 378 -2 377 -33 -1 c-17 -1
-59 -6 -91 -13z"/>
<path d="M4530 799 c-25 -4 -63 -15 -86 -24 l-41 -15 7 -45 c4 -25 9 -47 11
-49 3 -3 27 11 55 29 95 64 183 69 211 14 7 -13 13 -51 13 -84 l0 -60 -83 0
c-70 -1 -92 -5 -140 -28 -71 -35 -99 -74 -104 -141 -11 -147 175 -212 292
-102 30 28 35 30 35 14 0 -31 45 -68 81 -68 45 0 119 37 119 60 0 15 -6 17
-40 13 -68 -9 -70 -5 -70 201 0 162 -2 184 -20 213 -36 60 -142 92 -240 72z
m168 -356 c-3 -87 -3 -87 -37 -110 -25 -17 -48 -23 -87 -23 -46 0 -55 4 -78
31 -34 40 -34 88 -1 128 32 37 87 56 173 60 l33 1 -3 -87z"/>
<path d="M5224 799 c-23 -5 -60 -26 -83 -45 l-41 -36 0 42 c0 39 -2 42 -22 37
-13 -3 -51 -11 -85 -18 -35 -6 -63 -17 -63 -23 0 -6 17 -20 38 -31 l37 -20 3
-198 2 -198 -40 -16 c-22 -9 -40 -22 -40 -30 0 -10 27 -13 125 -13 97 0 125 3
125 13 0 7 -15 20 -32 28 l-33 14 -3 193 -2 192 31 19 c74 45 166 34 196 -22
12 -24 17 -70 21 -189 5 -172 -2 -203 -50 -210 -13 -2 -24 -11 -26 -21 -3 -15
8 -17 122 -17 102 0 126 3 126 14 0 8 -15 20 -34 26 -19 6 -37 18 -40 26 -3 9
-6 93 -6 188 0 158 -2 175 -22 216 -36 70 -113 100 -204 79z"/>
<path d="M6299 801 c-83 -16 -154 -80 -190 -171 -18 -45 -18 -183 0 -234 18
-51 76 -115 126 -137 49 -23 146 -25 203 -5 67 24 122 65 122 92 0 13 -2 24
-4 24 -2 0 -30 -13 -61 -30 -74 -39 -164 -42 -216 -7 -41 27 -76 94 -85 165
l-7 52 187 0 186 0 0 39 c0 140 -121 238 -261 212z m99 -57 c28 -20 48 -58 57
-111 l7 -43 -131 0 c-129 0 -131 0 -131 23 1 40 38 106 72 127 39 24 95 26
126 4z"/>
<path d="M4113 782 c-46 -8 -83 -20 -83 -26 0 -6 19 -20 43 -31 l42 -20 0
-200 0 -200 -42 -13 c-24 -8 -43 -20 -43 -28 0 -11 26 -14 140 -14 114 0 140
3 140 14 0 8 -19 20 -42 28 l-43 13 -3 248 c-2 188 -5 247 -15 246 -6 -1 -49
-9 -94 -17z"/>
<path d="M5760 779 c-58 -26 -105 -72 -138 -134 -23 -43 -27 -63 -27 -136 0
-75 3 -92 30 -144 54 -106 172 -151 292 -111 59 19 123 70 123 97 0 25 -12 24
-56 -6 -65 -44 -156 -46 -214 -5 -64 45 -94 161 -70 273 27 133 121 165 251
86 58 -36 69 -31 69 32 0 34 -4 38 -40 53 -58 23 -164 21 -220 -5z"/>
</g>
</svg>
